<?xml version="1.0" encoding="utf-8"?>
<!-- Generator: Adobe Illustrator 18.0.0, SVG Export Plug-In . SVG Version: 6.00 Build 0)  -->
<!DOCTYPE svg PUBLIC "-//W3C//DTD SVG 1.1//EN" "http://www.w3.org/Graphics/SVG/1.1/DTD/svg11.dtd">
<svg version="1.1" xmlns="http://www.w3.org/2000/svg" xmlns:xlink="http://www.w3.org/1999/xlink" x="0px" y="0px"
	 viewBox="0 0 495 435" enable-background="new 0 0 495 435" xml:space="preserve">
<g id="Layer_2" display="none">
	
		<image display="inline" overflow="visible" width="2048" height="1579" xlink:href="../../../../../Dropbox/dev/td/_themes/td/img/scrim.jpg"  transform="matrix(0.625 0 0 0.625 -493.8956 -144)">
	</image>
	<g id="OhTstU.tif" display="inline">
		
			<image overflow="visible" width="540" height="410" id="Layer_0" xlink:href="1145AFDB0E222394.png"  transform="matrix(1.6553 0 0 1.6553 -25.886 -201.5861)">
		</image>
	</g>
	<rect x="-23" y="-54" opacity="0.7" width="541.417" height="543"/>
</g>
<g id="Symbol">
	<g>
		<g display="none">
			<path display="inline" fill="#FFFFFF" d="M94.774,310.562H84.536v-43.601H73.949v-8.915h31.412v8.915H94.774V310.562z"/>
			<path display="inline" fill="#FFFFFF" d="M119.359,266.961v11.562h16.298v8.915h-16.298v14.209h16.925v8.915H109.12v-52.516
				h27.163v8.915H119.359z"/>
			<path display="inline" fill="#FFFFFF" d="M178.211,271.976c-2.855-3.482-7.174-5.572-11.562-5.572
				c-9.821,0-15.462,9.054-15.462,18.108c0,8.846,5.851,17.691,15.392,17.691c4.388,0,8.776-2.298,11.631-5.573v12.19
				c-3.831,1.81-7.661,3.134-11.91,3.134c-14.766,0-25.701-12.746-25.701-27.233c0-14.905,10.518-28.069,25.91-28.069
				c4.109,0,8.149,1.115,11.701,3.065L178.211,271.976L178.211,271.976z"/>
			<path display="inline" fill="#FFFFFF" d="M214.149,278.732v-20.686h10.238v52.516h-10.238v-23.472h-18.945v23.472h-10.238
				v-52.516h10.238v20.686H214.149z"/>
			<path display="inline" fill="#FFFFFF" d="M231.908,256.652h7.383l27.65,36.706h0.139v-35.312h10.238v53.56h-7.383l-27.65-36.705
				h-0.139v35.66h-10.238V256.652z"/>
			<path display="inline" fill="#FFFFFF" d="M295.007,310.562h-10.238v-52.516h10.238V310.562z"/>
			<path display="inline" fill="#FFFFFF" d="M337.562,271.976c-2.855-3.482-7.173-5.572-11.561-5.572
				c-9.82,0-15.462,9.054-15.462,18.108c0,8.846,5.851,17.691,15.393,17.691c4.388,0,8.775-2.298,11.631-5.573v12.19
				c-3.83,1.81-7.661,3.134-11.91,3.134c-14.766,0-25.7-12.746-25.7-27.233c0-14.905,10.517-28.069,25.91-28.069
				c4.109,0,8.149,1.115,11.7,3.065V271.976L337.562,271.976z"/>
			<path display="inline" fill="#FFFFFF" d="M355.043,299.488l-4.317,11.074H339.93l20.478-53.909h7.94l19.92,53.909h-10.935
				l-4.039-11.074H355.043z M363.888,272.045h-0.139l-5.781,19.084h12.468L363.888,272.045z"/>
			<path display="inline" fill="#FFFFFF" d="M401.636,301.647h14.487v8.915h-24.725v-52.516h10.238V301.647z"/>
			<path display="inline" fill="#FFFFFF" d="M59.394,322.628H74.02c15.183,0,25.352,11.353,25.352,26.328
				c0,14.766-10.447,26.188-25.423,26.188H59.394V322.628z M69.632,366.23h1.671c12.607,0,17.482-6.965,17.482-17.342
				c0-11.423-5.85-17.343-17.482-17.343h-1.671V366.23z"/>
			<path display="inline" fill="#FFFFFF" d="M114.624,375.145h-10.238v-52.516h10.238V375.145z"/>
			<path display="inline" fill="#FFFFFF" d="M132.314,331.543v11.562h14.836v8.915h-14.836v23.124h-10.238v-52.516h26.049v8.915
				H132.314z"/>
			<path display="inline" fill="#FFFFFF" d="M164.561,331.543v11.562h14.836v8.915h-14.836v23.124h-10.238v-52.516h26.049v8.915
				H164.561z"/>
			<path display="inline" fill="#FFFFFF" d="M196.808,375.145h-10.238v-52.516h10.238L196.808,375.145L196.808,375.145z"/>
			<path display="inline" fill="#FFFFFF" d="M239.363,336.559c-2.855-3.482-7.174-5.572-11.562-5.572
				c-9.821,0-15.462,9.054-15.462,18.108c0,8.846,5.851,17.691,15.392,17.691c4.388,0,8.776-2.298,11.631-5.573v12.19
				c-3.831,1.81-7.661,3.134-11.91,3.134c-14.766,0-25.701-12.746-25.701-27.233c0-14.905,10.518-28.069,25.91-28.069
				c4.109,0,8.149,1.115,11.701,3.065L239.363,336.559L239.363,336.559z"/>
			<path display="inline" fill="#FFFFFF" d="M245.838,322.628h10.238v29.393c0,6.478,0.557,15.602,9.263,15.602
				c8.706,0,9.264-9.124,9.264-15.602v-29.393h10.238v31.413c0,12.816-5.433,22.497-19.502,22.497
				c-14.069,0-19.501-9.681-19.501-22.497L245.838,322.628L245.838,322.628z"/>
			<path display="inline" fill="#FFFFFF" d="M302.322,366.23h14.487v8.915h-24.725v-52.516h10.238V366.23z"/>
			<path display="inline" fill="#FFFFFF" d="M335.056,375.145h-10.238v-43.601h-10.586v-8.916h31.412v8.915h-10.586L335.056,375.145
				L335.056,375.145z"/>
			<path display="inline" fill="#FFFFFF" d="M359.641,375.145h-10.238v-52.516h10.238V375.145z"/>
			<path display="inline" fill="#FFFFFF" d="M377.332,331.543v11.562h16.298v8.915h-16.298v14.209h16.925v8.915h-27.163v-52.516
				h27.163v8.915H377.332z"/>
			<path display="inline" fill="#FFFFFF" d="M425.805,334.191c-1.95-2.647-4.458-4.319-7.87-4.319c-3.274,0-6.408,2.507-6.408,5.92
				c0,8.845,20.826,5.154,20.826,22.776c0,10.517-6.547,17.969-17.273,17.969c-7.244,0-12.537-4.18-16.159-10.238l6.617-6.478
				c1.393,4.04,5.085,7.662,9.472,7.662c4.178,0,6.756-3.552,6.756-7.592c0-5.433-5.015-6.965-9.124-8.566
				c-6.756-2.786-11.701-6.199-11.701-14.348c0-8.706,6.478-15.741,15.323-15.741c4.667,0,11.143,2.299,14.348,5.851
				L425.805,334.191z"/>
		</g>
		<g>
			<path fill="#FFFFFF" d="M31.286,371.264h14.275c14.819,0,24.744,11.08,24.744,25.695c0,14.411-10.196,25.56-24.812,25.56H31.286
				V371.264z M41.279,413.818h1.631c12.304,0,17.062-6.798,17.062-16.927c0-11.148-5.71-16.926-17.062-16.926h-1.631V413.818z"/>
			<path fill="#FFFFFF" d="M83.971,411.711l-4.214,10.809H69.22l19.985-52.615h7.75l19.442,52.615h-10.673l-3.942-10.809H83.971z
				 M92.604,384.927h-0.136l-5.642,18.626h12.168L92.604,384.927z"/>
			<path fill="#FFFFFF" d="M128.84,406.205h0.136l10.197-35.621h5.914l10.604,35.621h0.136l10.061-34.94h10.469l-17.334,52.274
				h-7.342l-10.196-33.513h-0.136l-9.653,33.513h-7.342l-16.314-52.274h10.469L128.84,406.205z"/>
			<path fill="#FFFFFF" d="M179.079,369.904h7.206l26.987,35.824h0.136v-34.464h9.993v52.274h-7.206l-26.987-35.824h-0.136v34.805
				h-9.993V369.904z"/>
			<path fill="#FFFFFF" d="M260.317,422.519h-9.993v-51.255h13.596c10.741,0,17.742,4.282,17.742,15.906
				c0,10.877-5.914,16.179-16.383,16.179h-4.962V422.519z M260.317,395.056h2.039c5.914,0,9.109-1.292,9.109-7.953
				c0-6.595-3.807-7.546-9.381-7.546h-1.768V395.056z"/>
			<path fill="#FFFFFF" d="M291.25,411.711l-4.215,10.809h-10.536l19.985-52.615h7.749l19.441,52.615h-10.672l-3.943-10.809H291.25z
				 M299.883,384.927h-0.136l-5.643,18.626h12.168L299.883,384.927z"/>
			<path fill="#FFFFFF" d="M337.954,422.519h-9.992v-42.554h-10.333v-8.701h30.658v8.701h-10.333V422.519z"/>
			<path fill="#FFFFFF" d="M386.628,422.519h-12.101l-12.439-20.665h-0.137v20.665h-9.992v-51.255h13.527
				c10.129,0,17.131,4.486,17.131,15.431c0,6.525-3.604,13.052-10.469,14.207L386.628,422.519z M361.951,394.852h1.292
				c5.506,0,9.381-1.632,9.381-7.886c0-6.321-4.011-7.545-9.312-7.545h-1.36V394.852z"/>
			<path fill="#FFFFFF" d="M412.802,423.879c-15.635,0-25.355-11.964-25.355-27.055c0-15.228,10.061-26.92,25.355-26.92
				s25.356,11.692,25.356,26.92C438.158,411.915,428.437,423.879,412.802,423.879z M412.802,379.761
				c-9.448,0-15.022,8.361-15.022,16.654c0,7.886,3.942,17.606,15.022,17.606c11.081,0,15.023-9.721,15.023-17.606
				C427.825,388.123,422.251,379.761,412.802,379.761z"/>
			<path fill="#FFFFFF" d="M453.048,413.818h14.14v8.701h-24.132v-51.255h9.992V413.818z"/>
		</g>
		<g>
			<g id="Hand_7_">
				<path fill="#FFFFFF" d="M374.555,157.386l10.328-16.746h9.961l4.688-10.717l43.538-5.359c0,0,2.009,5.359-3.349,13.396
					c-5.359,8.038-13.396,14.066-13.396,14.066l-17.328-0.669v8.708L374.555,157.386z"/>
				<path fill="#FFFFFF" d="M348.627,168.104l19.425-54.255l9.378,2.679V93.754c0,0,8.708-2.009,14.066-8.708
					s4.688-13.396,8.038-16.746c3.349-3.349,6.699-8.038,14.066-7.368c7.368,0.669,8.708,5.359,6.699,12.056
					c-2.009,6.699-3.349,17.415-3.349,17.415l-20.094,24.082l-2.009,14.098l-20.29,6.028c0,0-5.833,40.189-7.173,38.18
					C366.045,170.783,348.627,168.104,348.627,168.104z"/>
				<path fill="#FFFFFF" d="M49.89,292.019l32.151-70.33l78.369-44.877h27.462c0,0,24.114,24.783,24.114,22.774
					c0-2.009,12.056-10.047,12.056-10.047l20.764,2.679l4.688,17.415h24.783l4.019-14.736l10.716-7.368l17.476,5.454l11.326-10.812
					v-20.764c0,0-1.34-6.028,4.019-10.047s10.047-2.679,10.047-2.679v-30.143l15.406-40.859c0,0,0-6.699,3.349-14.736
					c3.349-8.038,10.047-10.717,15.406-10.047c5.359,0.669,10.047,9.378,8.038,16.746c-2.009,7.368-29.472,97.793-29.472,97.793
					l-18.755,16.746v10.717l-4.688,9.378l-17.415-0.669l-7.69,22.774l7.69,3.349l-23.443,30.811l39.52,79.708l-3.349,20.764
					l-9.378,4.019l-49.117-70.242l-93.635-43.111l-96.373,50.39L49.89,292.019z"/>
			</g>
			<path fill="#FFFFFF" d="M204.098,135.598l15.925-1.655l5.359-14.066l-10.047-14.736l10.047-9.378l13.914,10.334l13.271-6.918
				l2.955-16.812h14.066l2.679,16.812l11.588,5.417l15.205-9.503l7.765,7.765l-9.546,14.008l6.104,13.848l16.44,1.425l0.774,11.996
				l-17.011,3.874l-6.511,16.073l9.155,14.242l-7.172,6.524l-14.736-8.708l-12.253,6.337l-3.276,14.97h-11.394l-3.021-15.123
				l-14.495-5.503l-12.391,8.623l-8.952-7.732l7.732-13.225l-6.252-13.131l-15.925-2.739v-13.019H204.098z M262.556,108.43
				c-17.605,0-31.876,14.271-31.876,31.876s14.271,31.876,31.876,31.876s31.876-14.271,31.876-31.876S280.161,108.43,262.556,108.43
				z"/>
			<path fill="#FFFFFF" d="M308.179,211.217l18.972,5.244l12.44-13.699l-4.895-21.372l15.705-6.23l11.295,18.067l18.294-1.969
				l10.921-17.92l16.102,6.306l-4.47,20.446l10.836,11.396l21.666-4.062l5.407,12.37l-17.207,11.756l0.778,18.589l18.181,9.001
				l-4.492,14.078l-21.209-3.192l-14.658,15.48l4.095,20.408l-11.136,4.254l-12.965-16.574l-16.867,1.762l-10.461,15.668
				l-13.042-5.107l3.321-18.667l-14.126-12.798l-18.05,4.315l-6.781-12.863l14.779-11.672l-1.27-17.834l-17.002-10.274
				L308.179,211.217z M387.277,206.324c-20.153-7.893-42.888,2.046-50.78,22.199c-7.893,20.153,2.046,42.888,22.199,50.78
				c20.153,7.893,42.888-2.047,50.78-22.199S407.429,214.216,387.277,206.324z"/>
		</g>
		<g>
			<path fill="#FFFFFF" d="M39.376,43.758h-5.989V18.254h-6.192v-5.215h18.374v5.215h-6.192V43.758z"/>
			<path fill="#FFFFFF" d="M54.167,18.254v6.763H63.7v5.215h-9.533v8.311h9.9v5.215H48.178V13.039h15.889v5.215H54.167z"/>
			<path fill="#FFFFFF" d="M89.001,21.187c-1.67-2.037-4.196-3.259-6.763-3.259c-5.744,0-9.044,5.296-9.044,10.592
				c0,5.174,3.422,10.349,9.004,10.349c2.567,0,5.133-1.345,6.804-3.26v7.13c-2.241,1.059-4.481,1.833-6.967,1.833
				c-8.637,0-15.033-7.456-15.033-15.93c0-8.719,6.152-16.419,15.156-16.419c2.403,0,4.767,0.652,6.844,1.793V21.187z"/>
			<path fill="#FFFFFF" d="M110.434,25.139v-12.1h5.989v30.719h-5.989V30.028H99.353v13.729h-5.989V13.039h5.989v12.1H110.434z"/>
			<path fill="#FFFFFF" d="M121.233,12.224h4.318l16.174,21.471h0.082V13.039h5.989v31.33h-4.318l-16.174-21.471h-0.082v20.859
				h-5.989V12.224z"/>
			<path fill="#FFFFFF" d="M158.554,43.758h-5.989V13.039h5.989V43.758z"/>
			<path fill="#FFFFFF" d="M183.855,21.187c-1.67-2.037-4.196-3.259-6.763-3.259c-5.745,0-9.045,5.296-9.045,10.592
				c0,5.174,3.422,10.349,9.004,10.349c2.567,0,5.133-1.345,6.804-3.26v7.13c-2.241,1.059-4.481,1.833-6.967,1.833
				c-8.637,0-15.033-7.456-15.033-15.93c0-8.719,6.152-16.419,15.156-16.419c2.403,0,4.767,0.652,6.844,1.793V21.187z"/>
			<path fill="#FFFFFF" d="M194.491,37.28l-2.526,6.478h-6.315l11.978-31.534h4.645l11.652,31.534h-6.396l-2.363-6.478H194.491z
				 M199.666,21.228h-0.082l-3.382,11.163h7.293L199.666,21.228z"/>
			<path fill="#FFFFFF" d="M222.157,38.543h8.474v5.215h-14.463V13.039h5.989V38.543z"/>
			<path fill="#FFFFFF" d="M245.138,13.039h8.556c8.881,0,14.829,6.641,14.829,15.4c0,8.637-6.11,15.318-14.87,15.318h-8.515V13.039
				z M251.126,38.543h0.979c7.374,0,10.226-4.074,10.226-10.145c0-6.682-3.422-10.145-10.226-10.145h-0.979V38.543z"/>
			<path fill="#FFFFFF" d="M277.854,43.758h-5.988V13.039h5.988V43.758z"/>
			<path fill="#FFFFFF" d="M288.611,18.254v6.763h8.679v5.215h-8.679v13.526h-5.988V13.039h15.237v5.215H288.611z"/>
			<path fill="#FFFFFF" d="M307.884,18.254v6.763h8.679v5.215h-8.679v13.526h-5.988V13.039h15.237v5.215H307.884z"/>
			<path fill="#FFFFFF" d="M327.156,43.758h-5.988V13.039h5.988V43.758z"/>
			<path fill="#FFFFFF" d="M352.457,21.187c-1.67-2.037-4.196-3.259-6.763-3.259c-5.745,0-9.045,5.296-9.045,10.592
				c0,5.174,3.423,10.349,9.004,10.349c2.566,0,5.134-1.345,6.804-3.26v7.13c-2.24,1.059-4.481,1.833-6.967,1.833
				c-8.637,0-15.033-7.456-15.033-15.93c0-8.719,6.151-16.419,15.155-16.419c2.404,0,4.767,0.652,6.845,1.793V21.187z"/>
			<path fill="#FFFFFF" d="M356.656,13.039h5.989v17.193c0,3.789,0.325,9.126,5.418,9.126s5.419-5.337,5.419-9.126V13.039h5.988
				v18.374c0,7.497-3.178,13.16-11.407,13.16s-11.407-5.663-11.407-13.16V13.039z"/>
			<path fill="#FFFFFF" d="M390.106,38.543h8.475v5.215h-14.463V13.039h5.988V38.543z"/>
			<path fill="#FFFFFF" d="M409.664,43.758h-5.989V18.254h-6.192v-5.215h18.374v5.215h-6.192V43.758z"/>
			<path fill="#FFFFFF" d="M424.454,43.758h-5.988V13.039h5.988V43.758z"/>
			<path fill="#FFFFFF" d="M435.211,18.254v6.763h9.534v5.215h-9.534v8.311h9.9v5.215h-15.889V13.039h15.889v5.215H435.211z"/>
			<path fill="#FFFFFF" d="M463.976,19.802c-1.141-1.548-2.607-2.526-4.604-2.526c-1.915,0-3.748,1.466-3.748,3.463
				c0,5.174,12.182,3.015,12.182,13.322c0,6.152-3.83,10.511-10.104,10.511c-4.236,0-7.333-2.445-9.451-5.989l3.87-3.789
				c0.814,2.363,2.974,4.481,5.541,4.481c2.444,0,3.951-2.078,3.951-4.441c0-3.178-2.933-4.074-5.337-5.011
				c-3.952-1.629-6.845-3.626-6.845-8.393c0-5.092,3.789-9.208,8.963-9.208c2.73,0,6.52,1.345,8.394,3.422L463.976,19.802z"/>
		</g>
	</g>
	<g>
		<g display="none">
			<path display="inline" fill="#FFFFFF" d="M94.774,310.562H84.536v-43.601H73.949v-8.915h31.412v8.915H94.774V310.562z"/>
			<path display="inline" fill="#FFFFFF" d="M119.359,266.961v11.562h16.298v8.915h-16.298v14.209h16.925v8.915H109.12v-52.516
				h27.163v8.915H119.359z"/>
			<path display="inline" fill="#FFFFFF" d="M178.211,271.976c-2.855-3.482-7.174-5.572-11.562-5.572
				c-9.821,0-15.462,9.054-15.462,18.108c0,8.846,5.851,17.691,15.392,17.691c4.388,0,8.776-2.298,11.631-5.573v12.19
				c-3.831,1.81-7.661,3.134-11.91,3.134c-14.766,0-25.701-12.746-25.701-27.233c0-14.905,10.518-28.069,25.91-28.069
				c4.109,0,8.149,1.115,11.701,3.065L178.211,271.976L178.211,271.976z"/>
			<path display="inline" fill="#FFFFFF" d="M214.149,278.732v-20.686h10.238v52.516h-10.238v-23.472h-18.945v23.472h-10.238
				v-52.516h10.238v20.686H214.149z"/>
			<path display="inline" fill="#FFFFFF" d="M231.908,256.652h7.383l27.65,36.706h0.139v-35.312h10.238v53.56h-7.383l-27.65-36.705
				h-0.139v35.66h-10.238V256.652z"/>
			<path display="inline" fill="#FFFFFF" d="M295.007,310.562h-10.238v-52.516h10.238V310.562z"/>
			<path display="inline" fill="#FFFFFF" d="M337.562,271.976c-2.855-3.482-7.173-5.572-11.561-5.572
				c-9.82,0-15.462,9.054-15.462,18.108c0,8.846,5.851,17.691,15.393,17.691c4.388,0,8.775-2.298,11.631-5.573v12.19
				c-3.83,1.81-7.661,3.134-11.91,3.134c-14.766,0-25.7-12.746-25.7-27.233c0-14.905,10.517-28.069,25.91-28.069
				c4.109,0,8.149,1.115,11.7,3.065V271.976L337.562,271.976z"/>
			<path display="inline" fill="#FFFFFF" d="M355.043,299.488l-4.317,11.074H339.93l20.478-53.909h7.94l19.92,53.909h-10.935
				l-4.039-11.074H355.043z M363.888,272.045h-0.139l-5.781,19.084h12.468L363.888,272.045z"/>
			<path display="inline" fill="#FFFFFF" d="M401.636,301.647h14.487v8.915h-24.725v-52.516h10.238V301.647z"/>
			<path display="inline" fill="#FFFFFF" d="M59.394,322.628H74.02c15.183,0,25.352,11.353,25.352,26.328
				c0,14.766-10.447,26.188-25.423,26.188H59.394V322.628z M69.632,366.23h1.671c12.607,0,17.482-6.965,17.482-17.342
				c0-11.423-5.85-17.343-17.482-17.343h-1.671V366.23z"/>
			<path display="inline" fill="#FFFFFF" d="M114.624,375.145h-10.238v-52.516h10.238V375.145z"/>
			<path display="inline" fill="#FFFFFF" d="M132.314,331.543v11.562h14.836v8.915h-14.836v23.124h-10.238v-52.516h26.049v8.915
				H132.314z"/>
			<path display="inline" fill="#FFFFFF" d="M164.561,331.543v11.562h14.836v8.915h-14.836v23.124h-10.238v-52.516h26.049v8.915
				H164.561z"/>
			<path display="inline" fill="#FFFFFF" d="M196.808,375.145h-10.238v-52.516h10.238L196.808,375.145L196.808,375.145z"/>
			<path display="inline" fill="#FFFFFF" d="M239.363,336.559c-2.855-3.482-7.174-5.572-11.562-5.572
				c-9.821,0-15.462,9.054-15.462,18.108c0,8.846,5.851,17.691,15.392,17.691c4.388,0,8.776-2.298,11.631-5.573v12.19
				c-3.831,1.81-7.661,3.134-11.91,3.134c-14.766,0-25.701-12.746-25.701-27.233c0-14.905,10.518-28.069,25.91-28.069
				c4.109,0,8.149,1.115,11.701,3.065L239.363,336.559L239.363,336.559z"/>
			<path display="inline" fill="#FFFFFF" d="M245.838,322.628h10.238v29.393c0,6.478,0.557,15.602,9.263,15.602
				c8.706,0,9.264-9.124,9.264-15.602v-29.393h10.238v31.413c0,12.816-5.433,22.497-19.502,22.497
				c-14.069,0-19.501-9.681-19.501-22.497L245.838,322.628L245.838,322.628z"/>
			<path display="inline" fill="#FFFFFF" d="M302.322,366.23h14.487v8.915h-24.725v-52.516h10.238V366.23z"/>
			<path display="inline" fill="#FFFFFF" d="M335.056,375.145h-10.238v-43.601h-10.586v-8.916h31.412v8.915h-10.586L335.056,375.145
				L335.056,375.145z"/>
			<path display="inline" fill="#FFFFFF" d="M359.641,375.145h-10.238v-52.516h10.238V375.145z"/>
			<path display="inline" fill="#FFFFFF" d="M377.332,331.543v11.562h16.298v8.915h-16.298v14.209h16.925v8.915h-27.163v-52.516
				h27.163v8.915H377.332z"/>
			<path display="inline" fill="#FFFFFF" d="M425.805,334.191c-1.95-2.647-4.458-4.319-7.87-4.319c-3.274,0-6.408,2.507-6.408,5.92
				c0,8.845,20.826,5.154,20.826,22.776c0,10.517-6.547,17.969-17.273,17.969c-7.244,0-12.537-4.18-16.159-10.238l6.617-6.478
				c1.393,4.04,5.085,7.662,9.472,7.662c4.178,0,6.756-3.552,6.756-7.592c0-5.433-5.015-6.965-9.124-8.566
				c-6.756-2.786-11.701-6.199-11.701-14.348c0-8.706,6.478-15.741,15.323-15.741c4.667,0,11.143,2.299,14.348,5.851
				L425.805,334.191z"/>
		</g>
		<g>
			<path fill="#FFFFFF" d="M31.286,371.264h14.275c14.819,0,24.744,11.08,24.744,25.695c0,14.411-10.196,25.56-24.812,25.56H31.286
				V371.264z M41.279,413.818h1.631c12.304,0,17.062-6.798,17.062-16.927c0-11.148-5.71-16.926-17.062-16.926h-1.631V413.818z"/>
			<path fill="#FFFFFF" d="M83.971,411.711l-4.214,10.809H69.22l19.985-52.615h7.75l19.442,52.615h-10.673l-3.942-10.809H83.971z
				 M92.604,384.927h-0.136l-5.642,18.626h12.168L92.604,384.927z"/>
			<path fill="#FFFFFF" d="M128.84,406.205h0.136l10.197-35.621h5.914l10.604,35.621h0.136l10.061-34.94h10.469l-17.334,52.274
				h-7.342l-10.196-33.513h-0.136l-9.653,33.513h-7.342l-16.314-52.274h10.469L128.84,406.205z"/>
			<path fill="#FFFFFF" d="M179.079,369.904h7.206l26.987,35.824h0.136v-34.464h9.993v52.274h-7.206l-26.987-35.824h-0.136v34.805
				h-9.993V369.904z"/>
			<path fill="#FFFFFF" d="M260.317,422.519h-9.993v-51.255h13.596c10.741,0,17.742,4.282,17.742,15.906
				c0,10.877-5.914,16.179-16.383,16.179h-4.962V422.519z M260.317,395.056h2.039c5.914,0,9.109-1.292,9.109-7.953
				c0-6.595-3.807-7.546-9.381-7.546h-1.768V395.056z"/>
			<path fill="#FFFFFF" d="M291.25,411.711l-4.215,10.809h-10.536l19.985-52.615h7.749l19.441,52.615h-10.672l-3.943-10.809H291.25z
				 M299.883,384.927h-0.136l-5.643,18.626h12.168L299.883,384.927z"/>
			<path fill="#FFFFFF" d="M337.954,422.519h-9.992v-42.554h-10.333v-8.701h30.658v8.701h-10.333V422.519z"/>
			<path fill="#FFFFFF" d="M386.628,422.519h-12.101l-12.439-20.665h-0.137v20.665h-9.992v-51.255h13.527
				c10.129,0,17.131,4.486,17.131,15.431c0,6.525-3.604,13.052-10.469,14.207L386.628,422.519z M361.951,394.852h1.292
				c5.506,0,9.381-1.632,9.381-7.886c0-6.321-4.011-7.545-9.312-7.545h-1.36V394.852z"/>
			<path fill="#FFFFFF" d="M412.802,423.879c-15.635,0-25.355-11.964-25.355-27.055c0-15.228,10.061-26.92,25.355-26.92
				s25.356,11.692,25.356,26.92C438.158,411.915,428.437,423.879,412.802,423.879z M412.802,379.761
				c-9.448,0-15.022,8.361-15.022,16.654c0,7.886,3.942,17.606,15.022,17.606c11.081,0,15.023-9.721,15.023-17.606
				C427.825,388.123,422.251,379.761,412.802,379.761z"/>
			<path fill="#FFFFFF" d="M453.048,413.818h14.14v8.701h-24.132v-51.255h9.992V413.818z"/>
		</g>
		<g>
			<g id="Hand_6_">
				<path fill="#FFFFFF" d="M374.555,157.386l10.328-16.746h9.961l4.688-10.717l43.538-5.359c0,0,2.009,5.359-3.349,13.396
					c-5.359,8.038-13.396,14.066-13.396,14.066l-17.328-0.669v8.708L374.555,157.386z"/>
				<path fill="#FFFFFF" d="M348.627,168.104l19.425-54.255l9.378,2.679V93.754c0,0,8.708-2.009,14.066-8.708
					s4.688-13.396,8.038-16.746c3.349-3.349,6.699-8.038,14.066-7.368c7.368,0.669,8.708,5.359,6.699,12.056
					c-2.009,6.699-3.349,17.415-3.349,17.415l-20.094,24.082l-2.009,14.098l-20.29,6.028c0,0-5.833,40.189-7.173,38.18
					C366.045,170.783,348.627,168.104,348.627,168.104z"/>
				<path fill="#FFFFFF" d="M49.89,292.019l32.151-70.33l78.369-44.877h27.462c0,0,24.114,24.783,24.114,22.774
					c0-2.009,12.056-10.047,12.056-10.047l20.764,2.679l4.688,17.415h24.783l4.019-14.736l10.716-7.368l17.476,5.454l11.326-10.812
					v-20.764c0,0-1.34-6.028,4.019-10.047s10.047-2.679,10.047-2.679v-30.143l15.406-40.859c0,0,0-6.699,3.349-14.736
					c3.349-8.038,10.047-10.717,15.406-10.047c5.359,0.669,10.047,9.378,8.038,16.746c-2.009,7.368-29.472,97.793-29.472,97.793
					l-18.755,16.746v10.717l-4.688,9.378l-17.415-0.669l-7.69,22.774l7.69,3.349l-23.443,30.811l39.52,79.708l-3.349,20.764
					l-9.378,4.019l-49.117-70.242l-93.635-43.111l-96.373,50.39L49.89,292.019z"/>
			</g>
			<path fill="#FFFFFF" d="M204.098,135.598l15.925-1.655l5.359-14.066l-10.047-14.736l10.047-9.378l13.914,10.334l13.271-6.918
				l2.955-16.812h14.066l2.679,16.812l11.588,5.417l15.205-9.503l7.765,7.765l-9.546,14.008l6.104,13.848l16.44,1.425l0.774,11.996
				l-17.011,3.874l-6.511,16.073l9.155,14.242l-7.172,6.524l-14.736-8.708l-12.253,6.337l-3.276,14.97h-11.394l-3.021-15.123
				l-14.495-5.503l-12.391,8.623l-8.952-7.732l7.732-13.225l-6.252-13.131l-15.925-2.739v-13.019H204.098z M262.556,108.43
				c-17.605,0-31.876,14.271-31.876,31.876s14.271,31.876,31.876,31.876s31.876-14.271,31.876-31.876S280.161,108.43,262.556,108.43
				z"/>
			<path fill="#FFFFFF" d="M308.179,211.217l18.972,5.244l12.44-13.699l-4.895-21.372l15.705-6.23l11.295,18.067l18.294-1.969
				l10.921-17.92l16.102,6.306l-4.47,20.446l10.836,11.396l21.666-4.062l5.407,12.37l-17.207,11.756l0.778,18.589l18.181,9.001
				l-4.492,14.078l-21.209-3.192l-14.658,15.48l4.095,20.408l-11.136,4.254l-12.965-16.574l-16.867,1.762l-10.461,15.668
				l-13.042-5.107l3.321-18.667l-14.126-12.798l-18.05,4.315l-6.781-12.863l14.779-11.672l-1.27-17.834l-17.002-10.274
				L308.179,211.217z M387.277,206.324c-20.153-7.893-42.888,2.046-50.78,22.199c-7.893,20.153,2.046,42.888,22.199,50.78
				c20.153,7.893,42.888-2.047,50.78-22.199S407.429,214.216,387.277,206.324z"/>
		</g>
		<g>
			<path fill="#FFFFFF" d="M39.376,43.758h-5.989V18.254h-6.192v-5.215h18.374v5.215h-6.192V43.758z"/>
			<path fill="#FFFFFF" d="M54.167,18.254v6.763H63.7v5.215h-9.533v8.311h9.9v5.215H48.178V13.039h15.889v5.215H54.167z"/>
			<path fill="#FFFFFF" d="M89.001,21.187c-1.67-2.037-4.196-3.259-6.763-3.259c-5.744,0-9.044,5.296-9.044,10.592
				c0,5.174,3.422,10.349,9.004,10.349c2.567,0,5.133-1.345,6.804-3.26v7.13c-2.241,1.059-4.481,1.833-6.967,1.833
				c-8.637,0-15.033-7.456-15.033-15.93c0-8.719,6.152-16.419,15.156-16.419c2.403,0,4.767,0.652,6.844,1.793V21.187z"/>
			<path fill="#FFFFFF" d="M110.434,25.139v-12.1h5.989v30.719h-5.989V30.028H99.353v13.729h-5.989V13.039h5.989v12.1H110.434z"/>
			<path fill="#FFFFFF" d="M121.233,12.224h4.318l16.174,21.471h0.082V13.039h5.989v31.33h-4.318l-16.174-21.471h-0.082v20.859
				h-5.989V12.224z"/>
			<path fill="#FFFFFF" d="M158.554,43.758h-5.989V13.039h5.989V43.758z"/>
			<path fill="#FFFFFF" d="M183.855,21.187c-1.67-2.037-4.196-3.259-6.763-3.259c-5.745,0-9.045,5.296-9.045,10.592
				c0,5.174,3.422,10.349,9.004,10.349c2.567,0,5.133-1.345,6.804-3.26v7.13c-2.241,1.059-4.481,1.833-6.967,1.833
				c-8.637,0-15.033-7.456-15.033-15.93c0-8.719,6.152-16.419,15.156-16.419c2.403,0,4.767,0.652,6.844,1.793V21.187z"/>
			<path fill="#FFFFFF" d="M194.491,37.28l-2.526,6.478h-6.315l11.978-31.534h4.645l11.652,31.534h-6.396l-2.363-6.478H194.491z
				 M199.666,21.228h-0.082l-3.382,11.163h7.293L199.666,21.228z"/>
			<path fill="#FFFFFF" d="M222.157,38.543h8.474v5.215h-14.463V13.039h5.989V38.543z"/>
			<path fill="#FFFFFF" d="M245.138,13.039h8.556c8.881,0,14.829,6.641,14.829,15.4c0,8.637-6.11,15.318-14.87,15.318h-8.515V13.039
				z M251.126,38.543h0.979c7.374,0,10.226-4.074,10.226-10.145c0-6.682-3.422-10.145-10.226-10.145h-0.979V38.543z"/>
			<path fill="#FFFFFF" d="M277.854,43.758h-5.988V13.039h5.988V43.758z"/>
			<path fill="#FFFFFF" d="M288.611,18.254v6.763h8.679v5.215h-8.679v13.526h-5.988V13.039h15.237v5.215H288.611z"/>
			<path fill="#FFFFFF" d="M307.884,18.254v6.763h8.679v5.215h-8.679v13.526h-5.988V13.039h15.237v5.215H307.884z"/>
			<path fill="#FFFFFF" d="M327.156,43.758h-5.988V13.039h5.988V43.758z"/>
			<path fill="#FFFFFF" d="M352.457,21.187c-1.67-2.037-4.196-3.259-6.763-3.259c-5.745,0-9.045,5.296-9.045,10.592
				c0,5.174,3.423,10.349,9.004,10.349c2.566,0,5.134-1.345,6.804-3.26v7.13c-2.24,1.059-4.481,1.833-6.967,1.833
				c-8.637,0-15.033-7.456-15.033-15.93c0-8.719,6.151-16.419,15.155-16.419c2.404,0,4.767,0.652,6.845,1.793V21.187z"/>
			<path fill="#FFFFFF" d="M356.656,13.039h5.989v17.193c0,3.789,0.325,9.126,5.418,9.126s5.419-5.337,5.419-9.126V13.039h5.988
				v18.374c0,7.497-3.178,13.16-11.407,13.16s-11.407-5.663-11.407-13.16V13.039z"/>
			<path fill="#FFFFFF" d="M390.106,38.543h8.475v5.215h-14.463V13.039h5.988V38.543z"/>
			<path fill="#FFFFFF" d="M409.664,43.758h-5.989V18.254h-6.192v-5.215h18.374v5.215h-6.192V43.758z"/>
			<path fill="#FFFFFF" d="M424.454,43.758h-5.988V13.039h5.988V43.758z"/>
			<path fill="#FFFFFF" d="M435.211,18.254v6.763h9.534v5.215h-9.534v8.311h9.9v5.215h-15.889V13.039h15.889v5.215H435.211z"/>
			<path fill="#FFFFFF" d="M463.976,19.802c-1.141-1.548-2.607-2.526-4.604-2.526c-1.915,0-3.748,1.466-3.748,3.463
				c0,5.174,12.182,3.015,12.182,13.322c0,6.152-3.83,10.511-10.104,10.511c-4.236,0-7.333-2.445-9.451-5.989l3.87-3.789
				c0.814,2.363,2.974,4.481,5.541,4.481c2.444,0,3.951-2.078,3.951-4.441c0-3.178-2.933-4.074-5.337-5.011
				c-3.952-1.629-6.845-3.626-6.845-8.393c0-5.092,3.789-9.208,8.963-9.208c2.73,0,6.52,1.345,8.394,3.422L463.976,19.802z"/>
		</g>
	</g>
	<g>
		<g display="none">
			<path display="inline" fill="none" stroke="#000000" stroke-miterlimit="10" d="M94.774,310.562H84.536v-43.601H73.949v-8.915
				h31.412v8.915H94.774V310.562z"/>
			<path display="inline" fill="none" stroke="#000000" stroke-miterlimit="10" d="M119.359,266.961v11.562h16.298v8.915h-16.298
				v14.209h16.925v8.915H109.12v-52.516h27.163v8.915H119.359z"/>
			<path display="inline" fill="none" stroke="#000000" stroke-miterlimit="10" d="M178.211,271.976
				c-2.855-3.482-7.174-5.572-11.562-5.572c-9.821,0-15.462,9.054-15.462,18.108c0,8.846,5.851,17.691,15.392,17.691
				c4.388,0,8.776-2.298,11.631-5.573v12.19c-3.831,1.81-7.661,3.134-11.91,3.134c-14.766,0-25.701-12.746-25.701-27.233
				c0-14.905,10.518-28.069,25.91-28.069c4.109,0,8.149,1.115,11.701,3.065L178.211,271.976L178.211,271.976z"/>
			<path display="inline" fill="none" stroke="#000000" stroke-miterlimit="10" d="M214.149,278.732v-20.686h10.238v52.516h-10.238
				v-23.472h-18.945v23.472h-10.238v-52.516h10.238v20.686H214.149z"/>
			<path display="inline" fill="none" stroke="#000000" stroke-miterlimit="10" d="M231.908,256.652h7.383l27.65,36.706h0.139
				v-35.312h10.238v53.56h-7.383l-27.65-36.705h-0.139v35.66h-10.238V256.652z"/>
			<path display="inline" fill="none" stroke="#000000" stroke-miterlimit="10" d="M295.007,310.562h-10.238v-52.516h10.238V310.562
				z"/>
			<path display="inline" fill="none" stroke="#000000" stroke-miterlimit="10" d="M337.562,271.976
				c-2.855-3.482-7.173-5.572-11.561-5.572c-9.82,0-15.462,9.054-15.462,18.108c0,8.846,5.851,17.691,15.393,17.691
				c4.388,0,8.775-2.298,11.631-5.573v12.19c-3.83,1.81-7.661,3.134-11.91,3.134c-14.766,0-25.7-12.746-25.7-27.233
				c0-14.905,10.517-28.069,25.91-28.069c4.109,0,8.149,1.115,11.7,3.065V271.976L337.562,271.976z"/>
			<path display="inline" fill="none" stroke="#000000" stroke-miterlimit="10" d="M355.043,299.488l-4.317,11.074H339.93
				l20.478-53.909h7.94l19.92,53.909h-10.935l-4.039-11.074H355.043z M363.888,272.045h-0.139l-5.781,19.084h12.468L363.888,272.045
				z"/>
			<path display="inline" fill="none" stroke="#000000" stroke-miterlimit="10" d="M401.636,301.647h14.487v8.915h-24.725v-52.516
				h10.238V301.647z"/>
			<path display="inline" fill="none" stroke="#000000" stroke-miterlimit="10" d="M59.394,322.628H74.02
				c15.183,0,25.352,11.353,25.352,26.328c0,14.766-10.447,26.188-25.423,26.188H59.394V322.628z M69.632,366.23h1.671
				c12.607,0,17.482-6.965,17.482-17.342c0-11.423-5.85-17.343-17.482-17.343h-1.671V366.23z"/>
			<path display="inline" fill="none" stroke="#000000" stroke-miterlimit="10" d="M114.624,375.145h-10.238v-52.516h10.238V375.145
				z"/>
			<path display="inline" fill="none" stroke="#000000" stroke-miterlimit="10" d="M132.314,331.543v11.562h14.836v8.915h-14.836
				v23.124h-10.238v-52.516h26.049v8.915H132.314z"/>
			<path display="inline" fill="none" stroke="#000000" stroke-miterlimit="10" d="M164.561,331.543v11.562h14.836v8.915h-14.836
				v23.124h-10.238v-52.516h26.049v8.915H164.561z"/>
			<path display="inline" fill="none" stroke="#000000" stroke-miterlimit="10" d="M196.808,375.145h-10.238v-52.516h10.238
				L196.808,375.145L196.808,375.145z"/>
			<path display="inline" fill="none" stroke="#000000" stroke-miterlimit="10" d="M239.363,336.559
				c-2.855-3.482-7.174-5.572-11.562-5.572c-9.821,0-15.462,9.054-15.462,18.108c0,8.846,5.851,17.691,15.392,17.691
				c4.388,0,8.776-2.298,11.631-5.573v12.19c-3.831,1.81-7.661,3.134-11.91,3.134c-14.766,0-25.701-12.746-25.701-27.233
				c0-14.905,10.518-28.069,25.91-28.069c4.109,0,8.149,1.115,11.701,3.065L239.363,336.559L239.363,336.559z"/>
			<path display="inline" fill="none" stroke="#000000" stroke-miterlimit="10" d="M245.838,322.628h10.238v29.393
				c0,6.478,0.557,15.602,9.263,15.602c8.706,0,9.264-9.124,9.264-15.602v-29.393h10.238v31.413
				c0,12.816-5.433,22.497-19.502,22.497c-14.069,0-19.501-9.681-19.501-22.497L245.838,322.628L245.838,322.628z"/>
			<path display="inline" fill="none" stroke="#000000" stroke-miterlimit="10" d="M302.322,366.23h14.487v8.915h-24.725v-52.516
				h10.238V366.23z"/>
			<path display="inline" fill="none" stroke="#000000" stroke-miterlimit="10" d="M335.056,375.145h-10.238v-43.601h-10.586v-8.916
				h31.412v8.915h-10.586L335.056,375.145L335.056,375.145z"/>
			<path display="inline" fill="none" stroke="#000000" stroke-miterlimit="10" d="M359.641,375.145h-10.238v-52.516h10.238V375.145
				z"/>
			<path display="inline" fill="none" stroke="#000000" stroke-miterlimit="10" d="M377.332,331.543v11.562h16.298v8.915h-16.298
				v14.209h16.925v8.915h-27.163v-52.516h27.163v8.915H377.332z"/>
			<path display="inline" fill="none" stroke="#000000" stroke-miterlimit="10" d="M425.805,334.191
				c-1.95-2.647-4.458-4.319-7.87-4.319c-3.274,0-6.408,2.507-6.408,5.92c0,8.845,20.826,5.154,20.826,22.776
				c0,10.517-6.547,17.969-17.273,17.969c-7.244,0-12.537-4.18-16.159-10.238l6.617-6.478c1.393,4.04,5.085,7.662,9.472,7.662
				c4.178,0,6.756-3.552,6.756-7.592c0-5.433-5.015-6.965-9.124-8.566c-6.756-2.786-11.701-6.199-11.701-14.348
				c0-8.706,6.478-15.741,15.323-15.741c4.667,0,11.143,2.299,14.348,5.851L425.805,334.191z"/>
		</g>
		<g>
			<path fill="none" stroke="#000000" stroke-miterlimit="10" d="M31.286,371.264h14.275c14.819,0,24.744,11.08,24.744,25.695
				c0,14.411-10.196,25.56-24.812,25.56H31.286V371.264z M41.279,413.818h1.631c12.304,0,17.062-6.798,17.062-16.927
				c0-11.148-5.71-16.926-17.062-16.926h-1.631V413.818z"/>
			<path fill="none" stroke="#000000" stroke-miterlimit="10" d="M83.971,411.711l-4.214,10.809H69.22l19.985-52.615h7.75
				l19.442,52.615h-10.673l-3.942-10.809H83.971z M92.604,384.927h-0.136l-5.642,18.626h12.168L92.604,384.927z"/>
			<path fill="none" stroke="#000000" stroke-miterlimit="10" d="M128.84,406.205h0.136l10.197-35.621h5.914l10.604,35.621h0.136
				l10.061-34.94h10.469l-17.334,52.274h-7.342l-10.196-33.513h-0.136l-9.653,33.513h-7.342l-16.314-52.274h10.469L128.84,406.205z"
				/>
			<path fill="none" stroke="#000000" stroke-miterlimit="10" d="M179.079,369.904h7.206l26.987,35.824h0.136v-34.464h9.993v52.274
				h-7.206l-26.987-35.824h-0.136v34.805h-9.993V369.904z"/>
			<path fill="none" stroke="#000000" stroke-miterlimit="10" d="M260.317,422.519h-9.993v-51.255h13.596
				c10.741,0,17.742,4.282,17.742,15.906c0,10.877-5.914,16.179-16.383,16.179h-4.962V422.519z M260.317,395.056h2.039
				c5.914,0,9.109-1.292,9.109-7.953c0-6.595-3.807-7.546-9.381-7.546h-1.768V395.056z"/>
			<path fill="none" stroke="#000000" stroke-miterlimit="10" d="M291.25,411.711l-4.215,10.809h-10.536l19.985-52.615h7.749
				l19.441,52.615h-10.672l-3.943-10.809H291.25z M299.883,384.927h-0.136l-5.643,18.626h12.168L299.883,384.927z"/>
			<path fill="none" stroke="#000000" stroke-miterlimit="10" d="M337.954,422.519h-9.992v-42.554h-10.333v-8.701h30.658v8.701
				h-10.333V422.519z"/>
			<path fill="none" stroke="#000000" stroke-miterlimit="10" d="M386.628,422.519h-12.101l-12.439-20.665h-0.137v20.665h-9.992
				v-51.255h13.527c10.129,0,17.131,4.486,17.131,15.431c0,6.525-3.604,13.052-10.469,14.207L386.628,422.519z M361.951,394.852
				h1.292c5.506,0,9.381-1.632,9.381-7.886c0-6.321-4.011-7.545-9.312-7.545h-1.36V394.852z"/>
			<path fill="none" stroke="#000000" stroke-miterlimit="10" d="M412.802,423.879c-15.635,0-25.355-11.964-25.355-27.055
				c0-15.228,10.061-26.92,25.355-26.92s25.356,11.692,25.356,26.92C438.158,411.915,428.437,423.879,412.802,423.879z
				 M412.802,379.761c-9.448,0-15.022,8.361-15.022,16.654c0,7.886,3.942,17.606,15.022,17.606c11.081,0,15.023-9.721,15.023-17.606
				C427.825,388.123,422.251,379.761,412.802,379.761z"/>
			<path fill="none" stroke="#000000" stroke-miterlimit="10" d="M453.048,413.818h14.14v8.701h-24.132v-51.255h9.992V413.818z"/>
		</g>
		<g>
			<g id="Hand_5_">
				<path fill="none" stroke="#000000" stroke-miterlimit="10" d="M374.555,157.386l10.328-16.746h9.961l4.688-10.717l43.538-5.359
					c0,0,2.009,5.359-3.349,13.396c-5.359,8.038-13.396,14.066-13.396,14.066l-17.328-0.669v8.708L374.555,157.386z"/>
				<path fill="none" stroke="#000000" stroke-miterlimit="10" d="M348.627,168.104l19.425-54.255l9.378,2.679V93.754
					c0,0,8.708-2.009,14.066-8.708s4.688-13.396,8.038-16.746c3.349-3.349,6.699-8.038,14.066-7.368
					c7.368,0.669,8.708,5.359,6.699,12.056c-2.009,6.699-3.349,17.415-3.349,17.415l-20.094,24.082l-2.009,14.098l-20.29,6.028
					c0,0-5.833,40.189-7.173,38.18C366.045,170.783,348.627,168.104,348.627,168.104z"/>
				<path fill="none" stroke="#000000" stroke-miterlimit="10" d="M49.89,292.019l32.151-70.33l78.369-44.877h27.462
					c0,0,24.114,24.783,24.114,22.774c0-2.009,12.056-10.047,12.056-10.047l20.764,2.679l4.688,17.415h24.783l4.019-14.736
					l10.716-7.368l17.476,5.454l11.326-10.812v-20.764c0,0-1.34-6.028,4.019-10.047s10.047-2.679,10.047-2.679v-30.143
					l15.406-40.859c0,0,0-6.699,3.349-14.736c3.349-8.038,10.047-10.717,15.406-10.047c5.359,0.669,10.047,9.378,8.038,16.746
					c-2.009,7.368-29.472,97.793-29.472,97.793l-18.755,16.746v10.717l-4.688,9.378l-17.415-0.669l-7.69,22.774l7.69,3.349
					l-23.443,30.811l39.52,79.708l-3.349,20.764l-9.378,4.019l-49.117-70.242l-93.635-43.111l-96.373,50.39L49.89,292.019z"/>
			</g>
			<path fill="none" stroke="#000000" stroke-miterlimit="10" d="M204.098,135.598l15.925-1.655l5.359-14.066l-10.047-14.736
				l10.047-9.378l13.914,10.334l13.271-6.918l2.955-16.812h14.066l2.679,16.812l11.588,5.417l15.205-9.503l7.765,7.765
				l-9.546,14.008l6.104,13.848l16.44,1.425l0.774,11.996l-17.011,3.874l-6.511,16.073l9.155,14.242l-7.172,6.524l-14.736-8.708
				l-12.253,6.337l-3.276,14.97h-11.394l-3.021-15.123l-14.495-5.503l-12.391,8.623l-8.952-7.732l7.732-13.225l-6.252-13.131
				l-15.925-2.739v-13.019H204.098z M262.556,108.43c-17.605,0-31.876,14.271-31.876,31.876s14.271,31.876,31.876,31.876
				s31.876-14.271,31.876-31.876S280.161,108.43,262.556,108.43z"/>
			<path fill="none" stroke="#000000" stroke-miterlimit="10" d="M308.179,211.217l18.972,5.244l12.44-13.699l-4.895-21.372
				l15.705-6.23l11.295,18.067l18.294-1.969l10.921-17.92l16.102,6.306l-4.47,20.446l10.836,11.396l21.666-4.062l5.407,12.37
				l-17.207,11.756l0.778,18.589l18.181,9.001l-4.492,14.078l-21.209-3.192l-14.658,15.48l4.095,20.408l-11.136,4.254
				l-12.965-16.574l-16.867,1.762l-10.461,15.668l-13.042-5.107l3.321-18.667l-14.126-12.798l-18.05,4.315l-6.781-12.863
				l14.779-11.672l-1.27-17.834l-17.002-10.274L308.179,211.217z M387.277,206.324c-20.153-7.893-42.888,2.046-50.78,22.199
				c-7.893,20.153,2.046,42.888,22.199,50.78c20.153,7.893,42.888-2.047,50.78-22.199S407.429,214.216,387.277,206.324z"/>
		</g>
		<g>
			<path fill="none" stroke="#000000" stroke-miterlimit="10" d="M39.376,43.758h-5.989V18.254h-6.192v-5.215h18.374v5.215h-6.192
				V43.758z"/>
			<path fill="none" stroke="#000000" stroke-miterlimit="10" d="M54.167,18.254v6.763H63.7v5.215h-9.533v8.311h9.9v5.215H48.178
				V13.039h15.889v5.215H54.167z"/>
			<path fill="none" stroke="#000000" stroke-miterlimit="10" d="M89.001,21.187c-1.67-2.037-4.196-3.259-6.763-3.259
				c-5.744,0-9.044,5.296-9.044,10.592c0,5.174,3.422,10.349,9.004,10.349c2.567,0,5.133-1.345,6.804-3.26v7.13
				c-2.241,1.059-4.481,1.833-6.967,1.833c-8.637,0-15.033-7.456-15.033-15.93c0-8.719,6.152-16.419,15.156-16.419
				c2.403,0,4.767,0.652,6.844,1.793V21.187z"/>
			<path fill="none" stroke="#000000" stroke-miterlimit="10" d="M110.434,25.139v-12.1h5.989v30.719h-5.989V30.028H99.353v13.729
				h-5.989V13.039h5.989v12.1H110.434z"/>
			<path fill="none" stroke="#000000" stroke-miterlimit="10" d="M121.233,12.224h4.318l16.174,21.471h0.082V13.039h5.989v31.33
				h-4.318l-16.174-21.471h-0.082v20.859h-5.989V12.224z"/>
			<path fill="none" stroke="#000000" stroke-miterlimit="10" d="M158.554,43.758h-5.989V13.039h5.989V43.758z"/>
			<path fill="none" stroke="#000000" stroke-miterlimit="10" d="M183.855,21.187c-1.67-2.037-4.196-3.259-6.763-3.259
				c-5.745,0-9.045,5.296-9.045,10.592c0,5.174,3.422,10.349,9.004,10.349c2.567,0,5.133-1.345,6.804-3.26v7.13
				c-2.241,1.059-4.481,1.833-6.967,1.833c-8.637,0-15.033-7.456-15.033-15.93c0-8.719,6.152-16.419,15.156-16.419
				c2.403,0,4.767,0.652,6.844,1.793V21.187z"/>
			<path fill="none" stroke="#000000" stroke-miterlimit="10" d="M194.491,37.28l-2.526,6.478h-6.315l11.978-31.534h4.645
				l11.652,31.534h-6.396l-2.363-6.478H194.491z M199.666,21.228h-0.082l-3.382,11.163h7.293L199.666,21.228z"/>
			<path fill="none" stroke="#000000" stroke-miterlimit="10" d="M222.157,38.543h8.474v5.215h-14.463V13.039h5.989V38.543z"/>
			<path fill="none" stroke="#000000" stroke-miterlimit="10" d="M245.138,13.039h8.556c8.881,0,14.829,6.641,14.829,15.4
				c0,8.637-6.11,15.318-14.87,15.318h-8.515V13.039z M251.126,38.543h0.979c7.374,0,10.226-4.074,10.226-10.145
				c0-6.682-3.422-10.145-10.226-10.145h-0.979V38.543z"/>
			<path fill="none" stroke="#000000" stroke-miterlimit="10" d="M277.854,43.758h-5.988V13.039h5.988V43.758z"/>
			<path fill="none" stroke="#000000" stroke-miterlimit="10" d="M288.611,18.254v6.763h8.679v5.215h-8.679v13.526h-5.988V13.039
				h15.237v5.215H288.611z"/>
			<path fill="none" stroke="#000000" stroke-miterlimit="10" d="M307.884,18.254v6.763h8.679v5.215h-8.679v13.526h-5.988V13.039
				h15.237v5.215H307.884z"/>
			<path fill="none" stroke="#000000" stroke-miterlimit="10" d="M327.156,43.758h-5.988V13.039h5.988V43.758z"/>
			<path fill="none" stroke="#000000" stroke-miterlimit="10" d="M352.457,21.187c-1.67-2.037-4.196-3.259-6.763-3.259
				c-5.745,0-9.045,5.296-9.045,10.592c0,5.174,3.423,10.349,9.004,10.349c2.566,0,5.134-1.345,6.804-3.26v7.13
				c-2.24,1.059-4.481,1.833-6.967,1.833c-8.637,0-15.033-7.456-15.033-15.93c0-8.719,6.151-16.419,15.155-16.419
				c2.404,0,4.767,0.652,6.845,1.793V21.187z"/>
			<path fill="none" stroke="#000000" stroke-miterlimit="10" d="M356.656,13.039h5.989v17.193c0,3.789,0.325,9.126,5.418,9.126
				s5.419-5.337,5.419-9.126V13.039h5.988v18.374c0,7.497-3.178,13.16-11.407,13.16s-11.407-5.663-11.407-13.16V13.039z"/>
			<path fill="none" stroke="#000000" stroke-miterlimit="10" d="M390.106,38.543h8.475v5.215h-14.463V13.039h5.988V38.543z"/>
			<path fill="none" stroke="#000000" stroke-miterlimit="10" d="M409.664,43.758h-5.989V18.254h-6.192v-5.215h18.374v5.215h-6.192
				V43.758z"/>
			<path fill="none" stroke="#000000" stroke-miterlimit="10" d="M424.454,43.758h-5.988V13.039h5.988V43.758z"/>
			<path fill="none" stroke="#000000" stroke-miterlimit="10" d="M435.211,18.254v6.763h9.534v5.215h-9.534v8.311h9.9v5.215h-15.889
				V13.039h15.889v5.215H435.211z"/>
			<path fill="none" stroke="#000000" stroke-miterlimit="10" d="M463.976,19.802c-1.141-1.548-2.607-2.526-4.604-2.526
				c-1.915,0-3.748,1.466-3.748,3.463c0,5.174,12.182,3.015,12.182,13.322c0,6.152-3.83,10.511-10.104,10.511
				c-4.236,0-7.333-2.445-9.451-5.989l3.87-3.789c0.814,2.363,2.974,4.481,5.541,4.481c2.444,0,3.951-2.078,3.951-4.441
				c0-3.178-2.933-4.074-5.337-5.011c-3.952-1.629-6.845-3.626-6.845-8.393c0-5.092,3.789-9.208,8.963-9.208
				c2.73,0,6.52,1.345,8.394,3.422L463.976,19.802z"/>
		</g>
	</g>
</g>
</svg>
