<?xml version="1.0" encoding="utf-8"?>
<!-- Generator: Adobe Illustrator 18.1.0, SVG Export Plug-In . SVG Version: 6.00 Build 0)  -->
<!DOCTYPE svg PUBLIC "-//W3C//DTD SVG 1.1//EN" "http://www.w3.org/Graphics/SVG/1.1/DTD/svg11.dtd">
<svg version="1.1" id="Icon" xmlns="http://www.w3.org/2000/svg" xmlns:xlink="http://www.w3.org/1999/xlink" x="0px" y="0px"
	 viewBox="-8.5 -38.5 512 512" enable-background="new -8.5 -38.5 512 512" xml:space="preserve">
<g>
	<path fill="#FFFFFF" d="M101.235,375.824v-25.603h12.672v64.999h-12.672v-29.05H77.787v29.05H65.115v-64.999h12.672v25.603H101.235
		z"/>
	<path fill="#FFFFFF" d="M140.194,361.255v14.31h20.172V386.6h-20.172v17.586h20.948v11.034h-33.62v-64.999h33.62v11.034H140.194z"
		/>
	<path fill="#FFFFFF" d="M217.859,415.22h-15.344l-15.776-26.206h-0.172v26.206h-12.672v-64.999h17.155
		c12.844,0,21.723,5.69,21.723,19.569c0,8.275-4.569,16.551-13.275,18.016L217.859,415.22z M186.567,380.134h1.638
		c6.983,0,11.896-2.069,11.896-10c0-8.017-5.086-9.569-11.81-9.569h-1.724V380.134z"/>
	<path fill="#FFFFFF" d="M238.975,361.255v14.31h20.17V386.6h-20.17v17.586h20.947v11.034h-33.619v-64.999h33.619v11.034H238.975z"
		/>
	<path fill="#FFFFFF" d="M293.795,415.22h-12.672v-53.964H268.02v-11.034h38.878v11.034h-13.102V415.22z"/>
	<path fill="#FFFFFF" d="M328.531,415.22h-12.672v-64.999h12.672V415.22z"/>
	<path fill="#FFFFFF" d="M385.509,367.462c-3.534-4.311-8.879-6.897-14.31-6.897c-12.155,0-19.137,11.207-19.137,22.413
		c0,10.949,7.242,21.897,19.051,21.897c5.431,0,10.862-2.844,14.397-6.897v15.086c-4.742,2.241-9.483,3.879-14.741,3.879
		c-18.275,0-31.81-15.776-31.81-33.706c0-18.449,13.017-34.741,32.068-34.741c5.087,0,10.086,1.378,14.483,3.793V367.462z"/>
	<path fill="#FFFFFF" d="M428.779,364.531c-2.413-3.276-5.517-5.344-9.741-5.344c-4.051,0-7.93,3.103-7.93,7.327
		c0,10.948,25.774,6.379,25.774,28.189c0,13.017-8.103,22.241-21.379,22.241c-8.965,0-15.517-5.172-19.999-12.672l8.19-8.018
		c1.723,5,6.292,9.483,11.724,9.483c5.172,0,8.362-4.396,8.362-9.396c0-6.724-6.207-8.62-11.293-10.603
		c-8.363-3.449-14.483-7.673-14.483-17.758c0-10.776,8.017-19.482,18.966-19.482c5.775,0,13.792,2.844,17.758,7.24L428.779,364.531z
		"/>
</g>
<g id="Flame_1_">
	<path fill="#FFFFFF" d="M176.283,316.795c0.124-2.132,0.248-4.265,0.391-6.719c49.312,0,98.525,0,148.09,0
		c0.109,2.251,0.217,4.485,0.324,6.719C275.486,316.795,225.885,316.795,176.283,316.795z"/>
	<path fill="#FFFFFF" d="M230.348,302.089c-8.884,4.207-17.471,4.604-25.911,2.92c-29.257-5.838-45.441-25.112-53.134-52.827
		c-4.527-16.31-4.62-32.977-4.087-49.68c0.253-7.927,1.058-15.835,1.374-23.761c0.223-5.601,0.043-11.218,0.043-17.583
		c4.598,3.958,9.364,8.06,14.314,12.32c4.765-25.524,10.249-51.575,7.897-78.682c5.569,1.014,9.016,4.549,11.569,9.115
		c3.994,7.144,7.871,14.354,12.398,22.632c9.171-31.749,18.611-62.362,7.836-95.328c15.63,3.427,20.713,17.085,28.257,28.808
		c3.16-4.666,4.198-9.639,4.362-14.683c0.426-13.053,0.471-26.118,0.789-39.176c0.233-9.585,2.73-18.512,8.614-27.402
		c0.643,2.778,1.098,4.737,1.549,6.697c2.492,10.823,7.033,20.854,14.732,28.738c12.184,12.479,18.572,27.764,23.627,43.912
		c2.155,6.883,4.276,13.777,6.723,21.667c4.986-12.145,4.184-23.807,3.884-35.901c5.758,2.288,9.465,6.489,12.807,10.909
		c9.669,12.791,14.903,27.623,18.561,42.979c2.944,12.359,5.053,24.917,7.664,38.052c8.615-8.107,9.77-19.501,13.939-31.281
		c0.806,1.601,1.108,2.471,1.625,3.185c12.31,17.029,16.211,36.267,13.489,56.66c-1.588,11.897-5.312,23.495-7.617,35.316
		c-0.934,4.791-0.65,9.82-0.335,14.971c6.534-4.206,8.929-11.365,13.049-17.446c6.729,25.593,3.466,56.559-22.421,82.019
		c-22.685,22.311-59.926,31.073-85.498,19.794c2.293-1.409,4.245-2.628,6.216-3.816c8.397-5.06,17.133-9.636,25.131-15.262
		c16.435-11.563,24.499-28.449,28.445-47.614c0.942-4.575,1.552-9.218,2.389-14.277c-4.635,2.583-8.83,4.921-14.016,7.811
		c2.714-13.547,5.123-25.86,0.801-38.158c-0.819-2.33-2.274-4.436-3.673-7.096c-3.229,6.486-5.921,12.417-9.08,18.088
		c-3.177,5.704-6.896,11.079-12.667,14.598c1.355-5.213,3.076-10.157,3.874-15.246c1.761-11.228-0.611-22.075-5.215-32.198
		c-4.488-9.867-10.03-19.255-15.147-28.834c-0.35-0.655-1.007-1.146-2.35-2.627c0.224,3.245,0.404,5.419,0.519,7.597
		c0.992,18.726,1.681,37.493-4.635,55.531c-2.712,7.746-6.646,15.063-10.434,23.485c-10.436-12.589-14.946-26.266-18.811-41.156
		c-5.324,12.086-7.418,24.022-6.669,36.129c0.741,11.983,2.978,23.875,4.559,35.816c-4.577-1.752-7.844-5.654-9.551-10.25
		c-3.908-10.527-7.544-21.194-10.53-32.013c-2.556-9.262-4.055-18.816-6.798-28.406c-2.288,7.665-4.839,15.264-6.789,23.014
		c-1.928,7.662-3.248,15.477-4.869,23.392c-3.172-1.823-6.568-3.775-11.085-6.372c2.44,17.585,6.662,33.31,14.395,47.983
		C202.344,284.112,213.609,295.576,230.348,302.089z"/>
</g>
<g>
	<path fill="#FFFFFF" d="M72.992,455.594h-4.716v-20.081H63.4v-4.106h14.467v4.106h-4.876V455.594z"/>
	<path fill="#FFFFFF" d="M85.921,435.513v5.325h7.506v4.106h-7.506v6.544h7.795v4.106h-12.51v-24.187h12.51v4.106H85.921z"/>
	<path fill="#FFFFFF" d="M114.632,437.824c-1.315-1.604-3.304-2.566-5.325-2.566c-4.523,0-7.121,4.17-7.121,8.339
		c0,4.074,2.694,8.149,7.089,8.149c2.021,0,4.042-1.059,5.357-2.567v5.614c-1.764,0.834-3.528,1.444-5.485,1.444
		c-6.801,0-11.837-5.87-11.837-12.542c0-6.865,4.844-12.928,11.933-12.928c1.893,0,3.753,0.513,5.389,1.412V437.824z"/>
	<path fill="#FFFFFF" d="M132.791,440.935v-9.527h4.715v24.187h-4.715v-10.81h-8.725v10.81h-4.716v-24.187h4.716v9.527H132.791z"/>
	<path fill="#FFFFFF" d="M142.577,430.766h3.4l12.735,16.906h0.064v-16.264h4.716v24.668h-3.4l-12.735-16.906h-0.064v16.424h-4.716
		V430.766z"/>
	<path fill="#FFFFFF" d="M173.247,455.594h-4.716v-24.187h4.716V455.594z"/>
	<path fill="#FFFFFF" d="M194.451,437.824c-1.315-1.604-3.304-2.566-5.325-2.566c-4.523,0-7.121,4.17-7.121,8.339
		c0,4.074,2.694,8.149,7.089,8.149c2.021,0,4.042-1.059,5.357-2.567v5.614c-1.764,0.834-3.528,1.444-5.485,1.444
		c-6.801,0-11.837-5.87-11.837-12.542c0-6.865,4.844-12.928,11.933-12.928c1.893,0,3.753,0.513,5.389,1.412V437.824z"/>
	<path fill="#FFFFFF" d="M204.11,450.493l-1.989,5.101h-4.972l9.431-24.829h3.657l9.174,24.829h-5.036l-1.861-5.101H204.11z
		 M208.183,437.855h-0.064l-2.662,8.789h5.742L208.183,437.855z"/>
	<path fill="#FFFFFF" d="M227.176,451.488h6.672v4.106h-11.388v-24.187h4.716V451.488z"/>
	<path fill="#FFFFFF" d="M247.837,431.407h6.737c6.993,0,11.676,5.228,11.676,12.126c0,6.8-4.812,12.061-11.709,12.061h-6.704
		V431.407z M252.552,451.488h0.77c5.806,0,8.051-3.208,8.051-7.987c0-5.261-2.694-7.987-8.051-7.987h-0.77V451.488z"/>
	<path fill="#FFFFFF" d="M274.881,455.594h-4.715v-24.187h4.715V455.594z"/>
	<path fill="#FFFFFF" d="M284.634,435.513v5.325h6.832v4.106h-6.832v10.65h-4.715v-24.187h11.996v4.106H284.634z"/>
	<path fill="#FFFFFF" d="M301.092,435.513v5.325h6.832v4.106h-6.832v10.65h-4.715v-24.187h11.996v4.106H301.092z"/>
	<path fill="#FFFFFF" d="M317.55,455.594h-4.715v-24.187h4.715V455.594z"/>
	<path fill="#FFFFFF" d="M338.754,437.824c-1.315-1.604-3.304-2.566-5.325-2.566c-4.522,0-7.121,4.17-7.121,8.339
		c0,4.074,2.695,8.149,7.09,8.149c2.021,0,4.042-1.059,5.357-2.567v5.614c-1.764,0.834-3.528,1.444-5.486,1.444
		c-6.8,0-11.836-5.87-11.836-12.542c0-6.865,4.844-12.928,11.933-12.928c1.892,0,3.753,0.513,5.388,1.412V437.824z"/>
	<path fill="#FFFFFF" d="M343.344,431.407h4.715v13.537c0,2.982,0.257,7.185,4.266,7.185c4.01,0,4.267-4.203,4.267-7.185v-13.537
		h4.715v14.467c0,5.903-2.502,10.362-8.982,10.362c-6.479,0-8.981-4.459-8.981-10.362V431.407z"/>
	<path fill="#FFFFFF" d="M370.966,451.488h6.672v4.106h-11.387v-24.187h4.715V451.488z"/>
	<path fill="#FFFFFF" d="M387.648,455.594h-4.716v-20.081h-4.875v-4.106h14.467v4.106h-4.875V455.594z"/>
	<path fill="#FFFFFF" d="M400.577,455.594h-4.715v-24.187h4.715V455.594z"/>
	<path fill="#FFFFFF" d="M410.33,435.513v5.325h7.506v4.106h-7.506v6.544h7.795v4.106h-12.51v-24.187h12.51v4.106H410.33z"/>
	<path fill="#FFFFFF" d="M434.262,436.733c-0.898-1.219-2.053-1.989-3.625-1.989c-1.507,0-2.951,1.154-2.951,2.726
		c0,4.073,9.591,2.373,9.591,10.489c0,4.844-3.015,8.276-7.955,8.276c-3.337,0-5.774-1.926-7.443-4.716l3.048-2.982
		c0.641,1.86,2.342,3.528,4.362,3.528c1.924,0,3.112-1.636,3.112-3.497c0-2.502-2.31-3.208-4.203-3.946
		c-3.111-1.283-5.388-2.855-5.388-6.608c0-4.009,2.982-7.25,7.057-7.25c2.149,0,5.132,1.059,6.608,2.695L434.262,436.733z"/>
</g>
</svg>
