<?xml version="1.0" encoding="utf-8"?>
<!-- Generator: Adobe Illustrator 18.1.0, SVG Export Plug-In . SVG Version: 6.00 Build 0)  -->
<!DOCTYPE svg PUBLIC "-//W3C//DTD SVG 1.1//EN" "http://www.w3.org/Graphics/SVG/1.1/DTD/svg11.dtd">
<svg version="1.1" id="Layer_1" xmlns="http://www.w3.org/2000/svg" xmlns:xlink="http://www.w3.org/1999/xlink" x="0px" y="0px"
	 viewBox="36.8 258.9 424 424" enable-background="new 36.8 258.9 424 424" xml:space="preserve">
<g id="Icon">
	<g>
		<path fill="#FFFFFF" d="M122.1,642.3v-21.4h10.6v54.3h-10.6V651h-19.6v24.3H91.9v-54.3h10.6v21.4H122.1z"/>
		<path fill="#FFFFFF" d="M154.6,630.1v12h16.9v9.2h-16.9V666h17.5v9.2H144v-54.3h28.1v9.2H154.6L154.6,630.1z"/>
		<path fill="#FFFFFF" d="M219.5,675.2h-12.8l-13.2-21.9h-0.1v21.9h-10.6v-54.3h14.3c10.7,0,18.1,4.8,18.1,16.3
			c0,6.9-3.8,13.8-11.1,15L219.5,675.2z M193.3,645.9h1.4c5.8,0,9.9-1.7,9.9-8.4c0-6.7-4.2-8-9.9-8h-1.4L193.3,645.9L193.3,645.9z"
			/>
		<path fill="#FFFFFF" d="M237.1,630.1v12H254v9.2h-16.8V666h17.5v9.2h-28.1v-54.3h28.1v9.2H237.1L237.1,630.1z"/>
		<path fill="#FFFFFF" d="M282.9,675.2h-10.6v-45.1h-10.9v-9.2h32.5v9.2h-10.9L282.9,675.2L282.9,675.2z"/>
		<path fill="#FFFFFF" d="M311.9,675.2h-10.6v-54.3h10.6V675.2z"/>
		<path fill="#FFFFFF" d="M359.5,635.3c-3-3.6-7.4-5.8-12-5.8c-10.2,0-16,9.4-16,18.7c0,9.1,6,18.3,15.9,18.3c4.5,0,9.1-2.4,12-5.8
			v12.6c-4,1.9-7.9,3.2-12.3,3.2c-15.3,0-26.6-13.2-26.6-28.2c0-15.4,10.9-29,26.8-29c4.2,0,8.4,1.2,12.1,3.2L359.5,635.3
			L359.5,635.3z"/>
		<path fill="#FFFFFF" d="M395.7,632.9c-2-2.7-4.6-4.5-8.1-4.5c-3.4,0-6.6,2.6-6.6,6.1c0,9.1,21.5,5.3,21.5,23.5
			c0,10.9-6.8,18.6-17.9,18.6c-7.5,0-13-4.3-16.7-10.6l6.8-6.7c1.4,4.2,5.3,7.9,9.8,7.9c4.3,0,7-3.7,7-7.8c0-5.6-5.2-7.2-9.4-8.9
			c-7-2.9-12.1-6.4-12.1-14.8c0-9,6.7-16.3,15.8-16.3c4.8,0,11.5,2.4,14.8,6L395.7,632.9z"/>
	</g>
	<g id="Flame_1_">
		<path fill="#FFFFFF" d="M184.7,596c0.1-1.8,0.2-3.6,0.3-5.6c41.2,0,82.3,0,123.7,0c0.1,1.9,0.2,3.7,0.3,5.6
			C267.6,596,226.2,596,184.7,596z"/>
		<path fill="#FFFFFF" d="M229.9,583.7c-7.4,3.5-14.6,3.8-21.6,2.4c-24.4-4.9-38-21-44.4-44.1c-3.8-13.6-3.9-27.5-3.4-41.5
			c0.2-6.6,0.9-13.2,1.1-19.8c0.2-4.7,0-9.4,0-14.7c3.8,3.3,7.8,6.7,12,10.3c4-21.3,8.6-43.1,6.6-65.7c4.7,0.8,7.5,3.8,9.7,7.6
			c3.3,6,6.6,12,10.4,18.9c7.7-26.5,15.5-52.1,6.5-79.6c13.1,2.9,17.3,14.3,23.6,24.1c2.6-3.9,3.5-8.1,3.6-12.3
			c0.4-10.9,0.4-21.8,0.7-32.7c0.2-8,2.3-15.5,7.2-22.9c0.5,2.3,0.9,4,1.3,5.6c2.1,9,5.9,17.4,12.3,24
			c10.2,10.4,15.5,23.2,19.7,36.7c1.8,5.8,3.6,11.5,5.6,18.1c4.2-10.1,3.5-19.9,3.2-30c4.8,1.9,7.9,5.4,10.7,9.1
			c8.1,10.7,12.4,23.1,15.5,35.9c2.5,10.3,4.2,20.8,6.4,31.8c7.2-6.8,8.2-16.3,11.6-26.1c0.7,1.3,0.9,2.1,1.4,2.7
			c10.3,14.2,13.5,30.3,11.3,47.3c-1.3,9.9-4.4,19.6-6.4,29.5c-0.8,4-0.5,8.2-0.3,12.5c5.5-3.5,7.5-9.5,10.9-14.6
			c5.6,21.4,2.9,47.2-18.7,68.5c-18.9,18.6-50.1,26-71.4,16.5c1.9-1.2,3.5-2.2,5.2-3.2c7-4.2,14.3-8,21-12.7
			c13.7-9.7,20.5-23.8,23.8-39.8c0.8-3.8,1.3-7.7,2-11.9c-3.9,2.2-7.4,4.1-11.7,6.5c2.3-11.3,4.3-21.6,0.7-31.9
			c-0.7-1.9-1.9-3.7-3.1-5.9c-2.7,5.4-4.9,10.4-7.6,15.1c-2.7,4.8-5.8,9.3-10.6,12.2c1.1-4.4,2.6-8.5,3.2-12.7
			c1.5-9.4-0.5-18.4-4.4-26.9c-3.7-8.2-8.4-16.1-12.7-24.1c-0.3-0.5-0.8-1-2-2.2c0.2,2.7,0.3,4.5,0.4,6.3
			c0.8,15.6,1.4,31.3-3.9,46.4c-2.3,6.5-5.6,12.6-8.7,19.6c-8.7-10.5-12.5-21.9-15.7-34.4c-4.4,10.1-6.2,20.1-5.6,30.2
			c0.6,10,2.5,19.9,3.8,29.9c-3.8-1.5-6.6-4.7-8-8.6c-3.3-8.8-6.3-17.7-8.8-26.7c-2.1-7.7-3.4-15.7-5.7-23.7
			c-1.9,6.4-4,12.8-5.7,19.2c-1.6,6.4-2.7,12.9-4.1,19.5c-2.6-1.5-5.5-3.2-9.3-5.3c2,14.7,5.6,27.8,12,40.1
			C206.5,568.7,215.9,578.3,229.9,583.7z"/>
	</g>
	<g>
		<path fill="#FFFFFF" d="M49.8,293h-5.3v-22.5H39v-4.6h16.2v4.6h-5.5V293z"/>
		<path fill="#FFFFFF" d="M64.3,270.5v6h8.4v4.6h-8.4v7.3H73v4.6H59v-27.1h14v4.6L64.3,270.5L64.3,270.5z"/>
		<path fill="#FFFFFF" d="M96.5,273.1c-1.5-1.8-3.7-2.9-6-2.9c-5.1,0-8,4.7-8,9.4c0,4.6,3,9.1,8,9.1c2.3,0,4.5-1.2,6-2.9v6.3
			c-2,0.9-4,1.6-6.2,1.6c-7.6,0-13.3-6.6-13.3-14.1c0-7.7,5.4-14.5,13.4-14.5c2.1,0,4.2,0.6,6,1.6C96.5,266.8,96.5,273.1,96.5,273.1
			z"/>
		<path fill="#FFFFFF" d="M116.9,276.6v-10.7h5.3V293h-5.3v-12.1h-9.8V293h-5.3v-27.1h5.3v10.7L116.9,276.6L116.9,276.6z"/>
		<path fill="#FFFFFF" d="M127.8,265.2h3.8l14.3,19h0.1v-18.3h5.3v27.7h-3.8l-14.3-19h-0.1V293h-5.3V265.2z"/>
		<path fill="#FFFFFF" d="M162.3,293H157v-27.1h5.3V293z"/>
		<path fill="#FFFFFF" d="M186.1,273.1c-1.5-1.8-3.7-2.9-6-2.9c-5.1,0-8,4.7-8,9.4c0,4.6,3,9.1,8,9.1c2.3,0,4.5-1.2,6-2.9v6.3
			c-2,0.9-4,1.6-6.2,1.6c-7.6,0-13.3-6.6-13.3-14.1c0-7.7,5.4-14.5,13.4-14.5c2.1,0,4.2,0.6,6,1.6V273.1z"/>
		<path fill="#FFFFFF" d="M196.9,287.3l-2.2,5.7h-5.6l10.6-27.9h4.1l10.3,27.9h-5.7l-2.1-5.7C206.3,287.3,196.9,287.3,196.9,287.3z
			 M201.5,273.1L201.5,273.1l-3.1,9.9h6.4L201.5,273.1z"/>
		<path fill="#FFFFFF" d="M222.8,288.4h7.5v4.6h-12.8v-27.1h5.3L222.8,288.4L222.8,288.4z"/>
		<path fill="#FFFFFF" d="M246,265.9h7.6c7.8,0,13.1,5.9,13.1,13.6c0,7.6-5.4,13.5-13.1,13.5H246L246,265.9L246,265.9z M251.3,288.4
			h0.9c6.5,0,9-3.6,9-9c0-5.9-3-9-9-9h-0.9L251.3,288.4L251.3,288.4z"/>
		<path fill="#FFFFFF" d="M276.3,293H271v-27.1h5.3V293z"/>
		<path fill="#FFFFFF" d="M287.3,270.5v6h7.7v4.6h-7.7V293H282v-27.1h13.5v4.6L287.3,270.5L287.3,270.5z"/>
		<path fill="#FFFFFF" d="M305.7,270.5v6h7.7v4.6h-7.7V293h-5.3v-27.1h13.5v4.6L305.7,270.5L305.7,270.5z"/>
		<path fill="#FFFFFF" d="M324.2,293h-5.3v-27.1h5.3V293z"/>
		<path fill="#FFFFFF" d="M348,273.1c-1.5-1.8-3.7-2.9-6-2.9c-5.1,0-8,4.7-8,9.4c0,4.6,3,9.1,8,9.1c2.3,0,4.5-1.2,6-2.9v6.3
			c-2,0.9-4,1.6-6.2,1.6c-7.6,0-13.3-6.6-13.3-14.1c0-7.7,5.4-14.5,13.4-14.5c2.1,0,4.2,0.6,6,1.6L348,273.1L348,273.1z"/>
		<path fill="#FFFFFF" d="M353.1,265.9h5.3v15.2c0,3.3,0.3,8.1,4.8,8.1c4.5,0,4.8-4.7,4.8-8.1v-15.2h5.3v16.2
			c0,6.6-2.8,11.6-10.1,11.6c-7.3,0-10.1-5-10.1-11.6L353.1,265.9L353.1,265.9z"/>
		<path fill="#FFFFFF" d="M384.1,288.4h7.5v4.6h-12.8v-27.1h5.3V288.4z"/>
		<path fill="#FFFFFF" d="M402.8,293h-5.3v-22.5h-5.5v-4.6h16.2v4.6h-5.5L402.8,293L402.8,293z"/>
		<path fill="#FFFFFF" d="M417.4,293h-5.3v-27.1h5.3V293z"/>
		<path fill="#FFFFFF" d="M428.3,270.5v6h8.4v4.6h-8.4v7.3h8.7v4.6h-14v-27.1h14v4.6L428.3,270.5L428.3,270.5z"/>
		<path fill="#FFFFFF" d="M455.2,271.9c-1-1.4-2.3-2.2-4.1-2.2c-1.7,0-3.3,1.3-3.3,3.1c0,4.6,10.8,2.7,10.8,11.8
			c0,5.4-3.4,9.3-8.9,9.3c-3.7,0-6.5-2.2-8.4-5.3l3.4-3.3c0.7,2.1,2.6,4,4.9,4c2.2,0,3.5-1.8,3.5-3.9c0-2.8-2.6-3.6-4.7-4.4
			c-3.5-1.4-6-3.2-6-7.4c0-4.5,3.3-8.1,7.9-8.1c2.4,0,5.8,1.2,7.4,3L455.2,271.9z"/>
	</g>
</g>
</svg>
