<?xml version="1.0" encoding="utf-8"?>
<!-- Generator: Adobe Illustrator 17.0.0, SVG Export Plug-In . SVG Version: 6.00 Build 0)  -->
<!DOCTYPE svg PUBLIC "-//W3C//DTD SVG 1.1//EN" "http://www.w3.org/Graphics/SVG/1.1/DTD/svg11.dtd">
<svg version="1.1" id="Layer_1" xmlns="http://www.w3.org/2000/svg" xmlns:xlink="http://www.w3.org/1999/xlink" x="0px" y="0px"
	 width="512px" height="512px" viewBox="0 0 512 512" enable-background="new 0 0 512 512" xml:space="preserve">
<g>
	<path fill="#DDDDDD" d="M34.406,185.756v85.31c55.363,0,107.398,21.631,146.516,60.939c38.659,38.852,60.128,90.387,60.681,145.354
		h85.307C325.739,316.37,195,185.756,34.406,185.756z"/>
	<path fill="#DDDDDD" d="M34.526,34.543v85.298c196.547,0,356.549,160.183,357.766,357.517h85.307
		C476.38,232.977,278.123,34.543,34.526,34.543z"/>
	<path fill="#DDDDDD" d="M93.423,359.092c-32.627,0-59.083,26.443-59.083,59.076c0,32.645,26.456,59.083,59.083,59.083
		c32.62,0,59.094-26.438,59.094-59.083C152.517,385.535,126.043,359.092,93.423,359.092z"/>
</g>
</svg>
