<?xml version="1.0" encoding="utf-8"?>
<!-- Generator: Adobe Illustrator 17.0.0, SVG Export Plug-In . SVG Version: 6.00 Build 0)  -->
<!DOCTYPE svg PUBLIC "-//W3C//DTD SVG 1.1//EN" "http://www.w3.org/Graphics/SVG/1.1/DTD/svg11.dtd">
<svg version="1.1" id="Symbol" xmlns="http://www.w3.org/2000/svg" xmlns:xlink="http://www.w3.org/1999/xlink" x="0px" y="0px"
	 width="495px" height="435px" viewBox="0 0 495 435" enable-background="new 0 0 495 435" xml:space="preserve">
<g id="Hand">
	<path fill="#FFFFFF" d="M318.354,97.87l9.367-15.187h9.034l4.252-9.719l39.485-4.86c0,0,1.822,4.86-3.037,12.149
		c-4.86,7.29-12.149,12.757-12.149,12.757l-15.715-0.607v7.897L318.354,97.87z"/>
	<path fill="#FFFFFF" d="M294.839,107.59l17.617-49.205l8.505,2.43V40.161c0,0,7.897-1.822,12.757-7.897s4.252-12.149,7.29-15.187
		c3.037-3.037,6.075-7.29,12.757-6.682c6.682,0.607,7.897,4.86,6.075,10.934c-1.822,6.075-3.037,15.794-3.037,15.794l-18.224,21.84
		l-1.822,12.786l-18.401,5.467c0,0-5.29,36.448-6.505,34.626S294.839,107.59,294.839,107.59z"/>
	<path fill="#FFFFFF" d="M23.909,219.971l29.158-63.784l71.074-40.7h24.906c0,0,21.869,22.476,21.869,20.654
		s10.934-9.112,10.934-9.112l18.831,2.43l4.252,15.794h22.476l3.645-13.364l9.719-6.682l15.849,4.946l10.272-9.806v-18.831
		c0,0-1.215-5.467,3.645-9.112c4.86-3.645,9.112-2.43,9.112-2.43V62.637l13.972-37.056c0,0,0-6.075,3.037-13.364
		c3.037-7.29,9.112-9.719,13.972-9.112s9.112,8.505,7.29,15.187c-1.822,6.682-26.729,88.69-26.729,88.69l-17.009,15.187v9.719
		l-4.252,8.505l-15.794-0.607l-6.974,20.654l6.974,3.037l-21.261,27.943l35.841,72.289l-3.037,18.831l-8.505,3.645l-44.545-63.704
		l-84.919-39.098l-87.402,45.7L23.909,219.971z"/>
</g>
<path fill="#FFFFFF" d="M163.763,78.11l14.443-1.501l4.86-12.757l-9.112-13.364l9.112-8.505l12.619,9.372l12.036-6.274l2.68-15.247
	h12.757l2.43,15.247l10.509,4.913l13.79-8.618l7.042,7.042l-8.657,12.704l5.536,12.559l14.91,1.292l0.702,10.879l-15.428,3.513
	l-5.905,14.577l8.303,12.916l-6.504,5.917l-13.364-7.897l-11.112,5.747l-2.971,13.577h-10.333l-2.74-13.715l-13.146-4.991
	l-11.238,7.82l-8.119-7.012l7.012-11.994l-5.67-11.909l-14.443-2.484V78.11z M216.78,53.471c-15.966,0-28.909,12.943-28.909,28.909
	s12.943,28.909,28.909,28.909s28.909-12.943,28.909-28.909S232.746,53.471,216.78,53.471z"/>
<path fill="#FFFFFF" d="M258.156,146.69l17.206,4.756l11.282-12.424l-4.439-19.383l14.243-5.65l10.244,16.385l16.591-1.786
	l9.904-16.252l14.603,5.719l-4.054,18.543l9.827,10.335l19.649-3.684l4.904,11.219l-15.605,10.662l0.706,16.859l16.489,8.163
	l-4.074,12.768l-19.235-2.895l-13.294,14.039l3.714,18.508l-10.099,3.858l-11.758-15.031l-15.297,1.598l-9.487,14.21l-11.828-4.632
	l3.012-16.929l-12.811-11.607l-16.37,3.913l-6.15-11.666l13.403-10.586l-1.152-16.174l-15.419-9.318L258.156,146.69z
	 M329.892,142.253c-18.277-7.158-38.896,1.856-46.053,20.133c-7.158,18.277,1.856,38.896,20.133,46.053
	c18.277,7.158,38.896-1.856,46.053-20.133C357.182,170.029,348.168,149.41,329.892,142.253z"/>
<g>
	<path fill="#FFFFFF" d="M49.861,345.687H36.469v-57.03H22.622v-11.661h41.087v11.661H49.861V345.687z"/>
	<path fill="#FFFFFF" d="M82.018,288.657v15.123h21.318v11.661H82.018v18.585h22.138v11.661h-35.53v-68.691h35.53v11.661H82.018z"/>
	<path fill="#FFFFFF" d="M158.997,295.216c-3.735-4.555-9.384-7.288-15.123-7.288c-12.846,0-20.225,11.843-20.225,23.686
		c0,11.57,7.653,23.14,20.133,23.14c5.74,0,11.479-3.006,15.214-7.289v15.944c-5.011,2.368-10.021,4.099-15.578,4.099
		c-19.314,0-33.617-16.672-33.617-35.621c0-19.496,13.757-36.714,33.89-36.714c5.375,0,10.659,1.458,15.305,4.009V295.216z"/>
	<path fill="#FFFFFF" d="M206.004,304.053v-27.058h13.392v68.691h-13.392v-30.702h-24.78v30.702h-13.392v-68.691h13.392v27.058
		H206.004z"/>
	<path fill="#FFFFFF" d="M229.233,275.173h9.657l36.167,48.012h0.182v-46.189h13.392v70.057h-9.657l-36.167-48.01h-0.182v46.644
		h-13.392V275.173z"/>
	<path fill="#FFFFFF" d="M311.768,345.687h-13.392v-68.691h13.392V345.687z"/>
	<path fill="#FFFFFF" d="M367.43,295.216c-3.735-4.555-9.383-7.288-15.122-7.288c-12.845,0-20.225,11.843-20.225,23.686
		c0,11.57,7.653,23.14,20.134,23.14c5.74,0,11.478-3.006,15.213-7.289v15.944c-5.01,2.368-10.021,4.099-15.578,4.099
		c-19.314,0-33.616-16.672-33.616-35.621c0-19.496,13.756-36.714,33.89-36.714c5.374,0,10.659,1.458,15.304,4.009V295.216z"/>
	<path fill="#FFFFFF" d="M390.295,331.202l-5.647,14.485h-14.121l26.785-70.514h10.385l26.055,70.514h-14.303l-5.283-14.485H390.295
		z M401.865,295.307h-0.182l-7.562,24.962h16.308L401.865,295.307z"/>
	<path fill="#FFFFFF" d="M451.24,334.026h18.949v11.661h-32.341v-68.691h13.392V334.026z"/>
	<path fill="#FFFFFF" d="M3.583,361.47h19.132c19.86,0,33.161,14.85,33.161,34.437c0,19.314-13.665,34.254-33.253,34.254H3.583
		V361.47z M16.975,418.501h2.186c16.49,0,22.867-9.11,22.867-22.684c0-14.941-7.652-22.685-22.867-22.685h-2.186V418.501z"/>
	<path fill="#FFFFFF" d="M75.825,430.162H62.433V361.47h13.392V430.162z"/>
	<path fill="#FFFFFF" d="M98.964,373.131v15.123h19.405v11.661H98.964v30.246H85.572V361.47h34.072v11.661H98.964z"/>
	<path fill="#FFFFFF" d="M141.143,373.131v15.123h19.405v11.661h-19.405v30.246h-13.392V361.47h34.072v11.661H141.143z"/>
	<path fill="#FFFFFF" d="M183.322,430.162H169.93V361.47h13.392V430.162z"/>
	<path fill="#FFFFFF" d="M238.985,379.691c-3.735-4.555-9.384-7.288-15.123-7.288c-12.846,0-20.225,11.843-20.225,23.686
		c0,11.57,7.653,23.14,20.133,23.14c5.74,0,11.479-3.006,15.214-7.289v15.944c-5.011,2.368-10.021,4.099-15.578,4.099
		c-19.314,0-33.617-16.672-33.617-35.621c0-19.496,13.757-36.714,33.89-36.714c5.375,0,10.659,1.458,15.305,4.009V379.691z"/>
	<path fill="#FFFFFF" d="M247.454,361.47h13.392v38.446c0,8.473,0.729,20.407,12.116,20.407c11.388,0,12.117-11.934,12.117-20.407
		V361.47h13.392v41.088c0,16.763-7.107,29.426-25.509,29.426c-18.402,0-25.508-12.663-25.508-29.426V361.47z"/>
	<path fill="#FFFFFF" d="M321.336,418.501h18.949v11.661h-32.341V361.47h13.392V418.501z"/>
	<path fill="#FFFFFF" d="M364.152,430.162h-13.392v-57.03h-13.847V361.47h41.087v11.661h-13.847V430.162z"/>
	<path fill="#FFFFFF" d="M396.31,430.162h-13.392V361.47h13.392V430.162z"/>
	<path fill="#FFFFFF" d="M419.449,373.131v15.123h21.318v11.661h-21.318v18.585h22.138v11.661h-35.53V361.47h35.53v11.661H419.449z"
		/>
	<path fill="#FFFFFF" d="M482.853,376.594c-2.55-3.462-5.831-5.649-10.294-5.649c-4.282,0-8.382,3.279-8.382,7.744
		c0,11.57,27.24,6.742,27.24,29.791c0,13.756-8.564,23.504-22.593,23.504c-9.475,0-16.399-5.467-21.136-13.392l8.655-8.473
		c1.822,5.285,6.651,10.022,12.39,10.022c5.465,0,8.837-4.646,8.837-9.931c0-7.106-6.56-9.11-11.934-11.205
		c-8.837-3.644-15.305-8.108-15.305-18.767c0-11.388,8.473-20.59,20.043-20.59c6.104,0,14.575,3.007,18.767,7.653L482.853,376.594z"
		/>
</g>
</svg>
