<?xml version="1.0" encoding="utf-8"?>
<!-- Generator: Adobe Illustrator 17.0.0, SVG Export Plug-In . SVG Version: 6.00 Build 0)  -->
<!DOCTYPE svg PUBLIC "-//W3C//DTD SVG 1.1//EN" "http://www.w3.org/Graphics/SVG/1.1/DTD/svg11.dtd">
<svg version="1.1" id="Layer_1" xmlns="http://www.w3.org/2000/svg" xmlns:xlink="http://www.w3.org/1999/xlink" x="0px" y="0px"
	 width="300px" height="300px" viewBox="0 0 300 300" enable-background="new 0 0 300 300" xml:space="preserve">
<path fill="#DEDDDD" d="M287,65.023c-10.081,4.471-20.915,7.493-32.286,8.852c11.605-6.957,20.519-17.973,24.716-31.101
	c-10.862,6.443-22.893,11.121-35.698,13.641c-10.254-10.925-24.863-17.751-41.032-17.751c-31.044,0-56.215,25.168-56.215,56.213
	c0,4.406,0.497,8.696,1.456,12.811c-46.719-2.345-88.141-24.724-115.866-58.735c-4.839,8.302-7.611,17.959-7.611,28.261
	c0,19.503,9.924,36.709,25.008,46.79c-9.215-0.292-17.883-2.821-25.461-7.031c-0.005,0.235-0.005,0.47-0.005,0.707
	c0,27.236,19.377,49.955,45.093,55.121c-4.717,1.284-9.683,1.972-14.81,1.972c-3.622,0-7.144-0.353-10.577-1.009
	c7.154,22.332,27.914,38.586,52.513,39.038c-19.239,15.078-43.477,24.065-69.815,24.065c-4.537,0-9.012-0.266-13.41-0.787
	c24.877,15.95,54.426,25.258,86.171,25.258c103.398,0,159.941-85.658,159.941-159.943c0-2.437-0.055-4.861-0.163-7.273
	C269.934,86.197,279.464,76.296,287,65.023z"/>
</svg>
