<?xml version="1.0" encoding="utf-8"?>
<!-- Generator: Adobe Illustrator 17.0.0, SVG Export Plug-In . SVG Version: 6.00 Build 0)  -->
<!DOCTYPE svg PUBLIC "-//W3C//DTD SVG 1.1//EN" "http://www.w3.org/Graphics/SVG/1.1/DTD/svg11.dtd">
<svg version="1.1" id="Layer_1" xmlns="http://www.w3.org/2000/svg" xmlns:xlink="http://www.w3.org/1999/xlink" x="0px" y="0px"
	 width="512px" height="512px" viewBox="0 0 512 512" enable-background="new 0 0 512 512" xml:space="preserve">
<g>
	<path fill="#DDDDDD" d="M407.387,194.881c0,2.859,3.237,4.08,3.46,7.813c0.167,2.784-2.518,6.35,2.536,7.484
		c0.695,2.896,5.835,3.919,6.61,0.893c-3.256,0,0.062-4.8-1.805-4.8c0-1.55-1.06-1.55-1.209-3.292c0.403-0.304,2.623,0.117,3.596,0
		c-0.161-1.761-2.388-2.989-2.388-4.502c-0.831,0-2.864,2.288-2.741-0.192c0.143-2.759-0.527-1.563-1.767-3.404
		c-0.341,0-1.742-3.188-1.197-3.901c1.389,0,1.278,0.341,3.001-0.304c0.255,0,4.13-1.203,2.4-1.203
		c-2.022-2.027-0.577-4.601-4.706-3.379c-2.201,0.657-3.305,2.939-5.792,3.088C407.387,189.69,404.733,194.881,407.387,194.881z"/>
	<path fill="#DDDDDD" d="M394.483,199.68c0.186-5.407-4.502-4.502-5.99-7.504c-1.544,0-2.102-1.197-4.204-1.197
		c-1.365-0.458-2.443-0.136-3.224,0.968c-3.2,1.227-1.259-1.569-3.671-1.569c0.105-3.094-1.11-3.944-4.508-3.603
		c-1.96,4.409-4.955,7.051-4.502,12.006c1.438,0.335,1.184,0.657,0.899,2.102c1.922,0.099,13.5-0.601,13.5-1.805
		c0.397,0,2.406,4.136,2.406,0.602c1.612,0,2.468,3.801,6.3,2.697C391.488,203.147,397.912,199.68,394.483,199.68z"/>
	<path fill="#DDDDDD" d="M208.981,256.072c0,0.316,0,0.601,0,0.912c0.372-0.118,0.533-0.31,0.899-0.31
		C209.88,256.289,209.365,256.072,208.981,256.072z"/>
	<path fill="#DDDDDD" d="M256.027,27.349c-126.245,0-228.593,102.341-228.593,228.593c0,126.245,102.347,228.593,228.593,228.593
		c126.246,0,228.593-102.347,228.593-228.593C484.62,129.69,382.273,27.349,256.027,27.349z M307.737,174.573
		c-2.747,0.837-0.601-2.189-0.552-3.696c0.31,0,6.232,0.273,2.697-0.899c-0.18-3.231-0.918-4.204-3.901-4.204
		c0-2.207-0.763-2.04-1.128-4.453c-0.521-3.565,2.778,0.248,3.832-3.64c2.431,0,0.31,1.798-0.223,1.805
		c0.403,0.161-0.081,1.619-0.081,2.096c2.238-0.025,2.281-1.401,3.9-1.805c-0.341,2.015-2.579,2.412-0.391,4.13
		c1.159,0.918,2.356,1.99,1.891,3.373c2.865,0,3.275,2.76,2.698,6.002c1.581,0,1.507,0.074,1.507-1.507
		c1.544,0.428,1.426,1.805,0,1.805c-1.427,2.815-5.153,2.697-7.807,2.697C310.168,174.101,309.74,173.964,307.737,174.573z
		 M307.781,177.177c0,0.744-1.507,1.333-1.798,0.298c0.291,0.099,0.397,0,0.291-0.298
		C306.782,177.177,307.285,177.177,307.781,177.177z M330.291,200.883c0.527,2.121,0.893,1.259,0.893-0.601
		c1.209,0,1.556,5.512-1.798,4.496C329.385,203.407,328.511,200.883,330.291,200.883z M329.683,196.679
		c1.401,0.601,1.996,0.403,1.798-0.596c1.823,0.596-0.242,1.91-0.602,3.299C329.962,198.459,330.247,198.13,329.683,196.679z
		 M332.684,211.679c0-0.298,0-0.608,0-0.905c2.264,0.54,6.406,9.68,6.002,11.708c1.737,0,3.355-0.292,4.502,0
		c0,1.947,3.646,2.418,5.302,2.499c2.301,0.118,9.09-0.229,9.09-3.404c1.773,0,3.349,1.253,3.007,3.299
		c2.028,0.223,14.052,0.459,13.19,2.995c1.755,0,2.207,3.014,3.906,3.014c-0.347,2.071,2.09,7.497,3.901,7.497
		c0,1.805,1.122,5.122,2.704,6.294c0.85,2.574,3.652,8.018,6.294,9.599c-1.123,2.133,1.699,3.882,2.4,6.002
		c-0.155,0,0.608,3.15,1.5,3.603c0,2.139,4.465,10.802,6.902,10.802c0.156,1.054-2.301,1.544,0.893,1.767
		c0.434,0.031,3.305-0.043,3.305-0.565c2.61,0,6.145-0.366,8.706-1.203c0,3.87-3.249,6.058-2.704,9.903
		c-2.158,0-1.203,2.226-1.203,2.989c-1.401,0.874-1.612,2.455-3.292,3.305c0,1.742-3.901,4.619-5.047,6.12
		c-1.29,1.656-5.203,4.558-5.712,6.672c0.131-0.502-7.143,7.608-5.444,7.608c0,1.52-2.04,13.493,0.602,13.493
		c0,1.06,2.257,11.112,0.893,11.112c0,3.231-2.096,5.197-2.096,7.782c-1.017,0.695-2.487,1.085-3.002,2.109
		c-1.835,0-2.716,3.906-3.597,3.906c0,4.167-1.203,7.267-1.203,11.993c0.335,0-2.4,6.752-2.4,7.199
		c-2.201,1.482-7.801,6.833-7.801,9.605c0,0-3.9,5.494-4.501,6.3c-1.16,0-10.201,1.705-10.201,2.4c-1.941,0-6.895,1.532-8.099-0.298
		c0-1.91-1.041-4.31-1.203-6.902c-0.924,0-1.067-3.894-2.09-3.894c0-0.831-5.724-12.315-4.8-12.315c0-1.185-1.023-5.091-1.203-5.091
		c0-4.148-3.008-7.59-3.008-11.404c-0.893,0-2.709-8.396-1.792-8.396c0-4.39,1.538-7.286,2.177-12.173
		c0.7-5.364-0.341-8.644-1.278-12.433c-0.509,0-2.226-2.864-2.406-3.597c-2.406-1.606-3.293-4.781-3.293-7.794
		c1.575-1.792,2.201-8.563,1.798-10.802c-3.026-1.451-4.229-0.899-7.503-0.899c-1.935-3.888-14.926-1.5-18.609-1.5
		c0,2.127-9.041-0.41-9.897-2.108c-2.207,0-6.597-4.701-6.597-6.896c-2.419-1.612-6.288-9.642-6.288-12.303
		c-2.095-1.048-1.457-5.097-0.31-5.097c0.285-1.129-0.725-4.675-1.222-6.369c-0.359-1.259,1.222-2.635,1.222-4.129
		c0-4.179,0.105-6.114,2.431-10.573c0.732-1.408,1.674-2.722,2.363-4.477c1.259-3.144,1.625-0.149,3.311-2.951
		c1.606-0.8,2.548-3.479,4.204-4.8c0.719-0.961,0.744-1.364,0-2.108c0.328,0,2.096-4.62,2.096-5.686
		c2.332-3.268,0.676-1.78,2.995-1.507c0.85-0.93,2.257-3.299,3.597-3.299c0.589-1.16,2.064-1.798,3.299-1.798
		c0,1.798,4.893-0.596,5.407-0.596c0.838-1.693,6.22-3.603,7.497-3.603C320.381,209.322,330.997,211.952,332.684,211.679z
		 M337.489,209.279c0.453-1.786,1.501-0.397,2.493-0.081c2.295,0.75,1.501-0.037,3.206-0.818
		C343.188,213.266,340.398,209.564,337.489,209.279z M408.578,334.377c0-1.085,0.192-0.954,0.905-1.5
		C409.793,334.439,410.085,334.874,408.578,334.377z M297.283,174.176c-1.612-1.619-0.068-2.468,0.304-4.198
		c-2.958-0.763,3.032-1.643,3.292-2.4c-0.998,0-1.693-1.036-1.308-1.916c0.446-1.036,1.184,1.234,2.214,0.719
		c1.203-0.13,3.59-1.941,2.368,1.569C302.913,171.509,301.766,174.107,297.283,174.176z M270.581,139.99
		c0,0,3.436-1.507,3.907-1.507c0,0.595-0.676,0.335,0.291,0.595c0.149,0.552-0.05,2.102,0,2.102c0,0.725,4.607-0.856,5.277-0.937
		c3.628-0.509,4.62-2.915,4.62,0.937c1.99,0.744,1.581-0.515,3.014-1.191c0,1.563,1.457,1.469-0.453,2.673
		c-1.749,1.122-3.175,1.513-5.395,1.513c-0.682,0-5.867,0.925-5.867,0.298c-1.909,0-3.423-0.936-5.698-1.203
		C270.277,142.408,273.52,139.99,270.581,139.99z M399.89,342.78c1.215,0.905,2.127,2.592,2.995,0
		c-2.158-0.434-1.631-1.184-0.899-3.002c1.463,0.899,5.705,2.394,5.705-0.899c-3.466,0,0.596-5.736,0.596-2.095
		c3.057,0,1.11-3.808,2.393-5.11c0,1.544,0.806,5.971,1.805,6.306c2.356,2.164-1.805,2.89-1.805,4.502
		c-1.041,0.521-0.893,2.673-0.893,3.293c-0.496,0-0.998,0-1.5,0c-0.161,2.983-1.501,6.281-1.501,8.7
		c-1.364,0-0.961,4.837-1.116,8.036c-0.726,1.017-1.427,2.053-2.177,3.051C396.058,366.474,398.706,346.314,399.89,342.78z
		 M439.161,240.557c-2.443,0.086-5.544-0.546-6.58-0.974c-6.015,0-11.099-5.723-17.096-3.913c0.093-0.291-0.012-0.397-0.304-0.291
		c0.496-1.476-4.502-10.219-6.629-6.375c-0.577,1.042,1.761,4.825,2.734,5.475c0,0.813,0.515,2.598,1.203,3.262
		c1.742,1.699-0.403,2.251-0.006,3.336c2.207,0,1.872-0.415,2.406-3.603c0.273,0.204,0.217,0.304,0.595,0.304
		c-0.297,1.209-0.105,2.306,0.546,3.311c2.22,3.405-0.502,0.205,0.354,2.692c3.069,0,5.99-1.662,7.503-5.401
		c1.141,0.85-0.242,2.133,0.893,2.697c0.998,1.172,1.972,1.724,1.327,3.106c-0.428,0.93,2.549,2.735,1.972-0.7
		c3.28,0.924,2.71,4.998,0.31,6.598c0,1.562-1.507,1.711-1.507,3.751c0,1.314-0.973,3.633-2.102,4.043
		c0,0.794-8.935,4.675-8.396,6.3c-1.569,0-7.088,1.581-8.099,3.603c-1.11,0-5.6,1.587-6.003,2.4c-5.574,0-4.514-6.598-7.199-6.598
		c0.211-1.11-0.546-1.593-1.197-2.704c1.711,0-5.395-13.232-5.395-15.304c-1.079-0.54-2.474-4.316-2.71-5.693
		c-1.469-0.973-2.989-4.179-3.603-6.002c-1.488-0.992-5.103-5.42-5.698-7.503c2.146,0.236,5.401,0.676,5.401-2.102
		c-1.457,0-1.662-1.792-0.298-1.792c-0.453-1.842,0.98-3.175,1.278-4.601c0.371-1.742,1.116-4.415,1.116-6.499
		c-2.071,0-2.561,0.354-4.198,0.899c0,1.215-3.659-0.304-4.204-0.304c-0.782-1.575-6.468,2.052-8.086-1.203
		c-2.58-2.337-1.885-4.142-2.716-7.453c-0.428-1.674-2.704-1.774-4.092-2.052c-3.913-0.769-1.092,4.669-1.296,5.909
		c2.4,0-1.507,2.982-1.507,4.502c-4.049-0.874-2.697-5.401-5.091-6.598c-0.707-1.196-0.13-2.102-1.805-2.102
		c0-1.606,0.869-4.515-0.899-5.103c0-0.769-3.391-1.092-3.894-2.102c-2.152,0-7.144-8.135-8.669-5.395
		c-0.973,1.755,0.806,2.183,1.166,3.603c3.101-0.62,2.797,5.134,6.598,4.496c0.006,0.812,0.105,1.619,0.298,2.406
		c2.809-0.664,2.487,2.096,3.9,2.096c-1.029,1.37-4.272-2.177-3.392,0.8c0.515,1.73,0.23,3.205-2.009,4.898
		c0-1.866-0.149-6.902-2.095-6.902c-1.327-2.66-5.253-2.021-6.908-4.496c-1.358,0-1.879-4.204-4.198-4.502
		c-0.428,0.614-2.065,1.203-2.697,1.203c-1.259,2.536-8.39,0.254-8.39,0.595c-0.111,0.031-3.993,9.544-4.21,10.796
		c-0.447,2.692-2.605,2.748-3.256,5.296c-0.323,1.278-8.148,0.676-8.148,1.612c-3.367-1.128-6.295-3.497-6.295-7.199
		c-0.285,0,0.633-9.425,1.203-10.802c0.682,0.192,0.825,0.428,1.203,1.203c2.071-0.769,6.896,0.509,6.896-1.805
		c2.015,0.056,2.61,0.856,1.798,2.406c1.873,0.354,5.103,0.831,5.103-1.804c-1.098,0-1.203-0.105-1.203-1.203
		c3.584-3.745-2.703-7.125-2.703-8.998c-1.253-0.422-3.858-3.193-2.015-2.151c1.556,0.868,7.267,2.66,5.016-1.154
		c0.149-0.05,0.255-0.149,0.304-0.291c0.62,0.453,3.299,3.219,3.299,0.596c0.738,0,3.59-1.798,1.203-1.798
		c0.223-1.346,0.167-2.475,0.297-3.305c3.789,2.052,1.668-1.401,3.603-2.692c0,2.493,2.053-1.203,3.299-1.203
		c1.476-2.22,4.862-0.497,5.693-3.008c-1.835-0.608-1.494-5.209-1.494-6.889c2.201,0.366,4.657-2.995,5.004-0.688
		c0.124,0.886,0.236,3.342,0.688,3.684c3.274,1.723,2.412-0.992,2.412-2.697c-1.097,0-2.555-3.857-2.709-5.705
		c-0.899,0.13-2.344,0.502-2.704,1.197c-3.274,0-5.494-1.197-8.092-1.197c-0.192-0.397-3.318-3.906-3.007-3.906
		c-1.811-3.15,1.835-2.233,2.412-2.381c0-2.989,12.371-2.462,12.898-7.218c-4.062,0,4.191-6.914,4.191-6.883
		c2.766-2.369,4.217-4.403,7.652-4.663c1.457-0.105,17.555-4.558,17.555-2.542c1.587,0.05,11.707,0.018,11.707,1.197
		c1.612,0,5.19,1.78,6.35,1.153c1.978-1.072,10.145,2.4,10.145,5.147c-3.832,0-9.116,0.899-14.107,0.899c0,1.11,0.545,0.112,0,1.197
		c1.736,0,4.806,4.477,4.508,6.008c2.443,0.044,3.404-1.804,5.091-1.804c0,2.065,2.4,2.406,3.002,0
		c-1.848,0-0.937-2.697-0.601-2.697c1.209-2.195,3.708-0.069,4.868-2.562C420.477,166.021,435.918,201.578,439.161,240.557z
		 M130.905,121.436c0.868-0.099,2.951-1.457,3.379-1.563c0,1.873-0.44,1.984,0.304,4.204c0.347,0,2.127,2.927,2.09,4.192
		c1.638-0.118,3.981-1.172,4.502,0.911c-0.806-0.012-1.612-0.105-2.393-0.31c0.577,4.651-2.022,1.805-4.198,1.805
		c0-0.298-6.579-2.939-3.906,1.507c0.701,0,0.335,1.085,2.325,1.754c2.313,0.775,4.849,1.222,7.28,1.6
		c1.972,0.31,3.107-0.359,4.793-0.359c0-0.255,4.117-2.096,1.209-2.096c0.403-1.656-0.335-2.065-2.108-2.096
		c0.155-1.755,4.31-0.608,6.002-0.608c1.296-2.189,0.043-1.935,1.184-3.925c1.377-2.437,3.008-0.328,3.913-2.666
		c1.358,0.521,2.567,1.259,3.002,2.989c1.079,0.899,6.598,9.072,6.598,3.299c1.978,0.664,2.958,4.365,3.001,6.313
		c3.584-0.527,3.901-3.224,3.901-6.009c0.831,0-0.304-1.345-0.304-1.805c1.327-0.496,3.002,1.271,3.002-0.595
		c0.583,0,0.608,0.577,0.608,1.203c1.86,0.366,3.05-0.217,4.198,0.186c0.787,0.285,0.385,4.372,0.025,5.811
		c-0.453,1.835-3.931,1.86-3.931,2.703c-3.95,2.958,4.651,4.49,6.002,6.294c-0.818,0-3.901-0.397-3.901-0.595
		c-1.947,0-6.66,2.071-8.396,0.595c2.424,0,3.236-2.92,3.596-5.692c-2.226-0.838-4.862,0.545-5.494,2.765
		c-1.048,3.677-3.478-0.143-4.706,2.332c-0.471,0.155-4.799,2.17-4.799,1.494c-4.862,0.695-3.597,4.837-3.597,9.302
		c1.94,1.166,5.878,4.483,5.692,6.3c4.378,0.775,5.972,1.234,9.903,1.805c0.329,0.645,1.619,1.234,2.406,1.488
		c0,2.574,2.338,2.114,4.496,2.114c0-3.299,3.82,2.748,4.198,3.894c-0.527,0,0.899,3.361,1.196,4.508
		c-0.595-0.211-0.787,0-0.595,0.601c1.897,0.695,4.905,0.502,5.401-1.507c-1.823,0-1.203-2.083-1.203-3.305
		c-1.879-1.253-1.587-3.665,0.304-4.192c0,1.706,6.176-1.066,2.697-2.4c0.855-1.91,1.42-4.861,0.043-6.517
		c-0.886-1.054-1.991,0-2.437-1.581c2.356-0.595,0.62-5.097,0.596-7.199c0.744-0.285,2.704,0.478,2.704,0
		c2.306,0,6.145,2.933,7.497-0.614c3.857,1.768,0.787,3.442,4.8,2.109c0,0.949,4.527,5.401,5.103,5.401
		c0,0.211-0.105,1.494,0.893,1.494c0,0.961-0.595-0.558-0.595,1.197c0.564,0.056,3.602,0.614,3.602-0.596
		c1.935,0,3.299-2.387,3.299-4.198c1.215-0.787,3.33,6.598,4.793,6.598c1.072,1.68,4.508,4.117,4.508,5.698
		c0.719,0.738,1.495,0.54,1.495,2.704c0.911,0,2.709-3.597,2.709-0.298c0.85,0,3.299,1.824,3.597,3.293
		c-2.151,0-0.105,2.108-1.209,2.108c0,2.071-4.632,0.422-5.686,0.298c-1.439,6.455-10.095,1.817-15.329,3.485
		c-2.759,0.887-8.086,6.982-8.384,10.015c3.349,0.037,4.818-2.902,7.801-3.907c2.431,0,2.908-1.482,5.11-2.095
		c0,0.613,0.596,0.291,0.596,0.899c-4.273,0-1.674,2.772-0.428,4.787c1.197,1.935,2.561,2.61,4.328,2.709
		c-0.446,1.352-2.697,0.273-2.697,1.805c-0.812,0.273-2.4,0.868-2.709,1.5c-4.831,0.54-2.45,0.217-2.127-0.955
		c0.18,0.422,1.916,0.037,1.836,0.056c-0.291-1.451-0.726-1.252-0.298-2.102c-2.623,0-3.894,1.203-6.009,1.203
		c-0.354,0.713-2.182,2.4-2.995,2.4c-0.614,1.86-1.99,5.227-3.603,6.3c0-0.484-4.266,2.697-3.9,2.697
		c-0.955,1.544-1.991,1.488-2.406,3.894c-0.291,0.156-1.495,4.179-1.495,4.8c-1.86,1.24-2.548,6.307-5.698,6.307
		c-1.935,3.857-5.401,3.336-5.401,8.402c1.178,1.209,1.631,6.517,1.984,8.235c0.446,2.121,1.153,4.316-1.681,4.365
		c-0.192-0.316-2.164-3.299-1.804-3.299c0-1.24-1.507-5.202-2.4-6.443c-1.178-1.662-3.373,0.26-5.103-0.459
		c-0.738-1.476-5.711-1.804-7.491-1.804c0.291,1.116,1.104,1.463,1.197,2.703c-1.476,0.608-2.325,1.278-3.838,1.06
		c-2.61-0.366-2.294-2.4-5.166-2.114c-4.595,0.465-7.794,4.285-7.794,8.849c-0.502,0-0.502,8.998,0,8.998
		c0,2.542,2.096,4.378,2.096,6.306c2.04,0,4.322,4.496,6.306,4.496c0.224,1.587-0.998,1.842,2.394,1.805
		c0-0.173,1.854-1.159,2.102-2.406c-2.35-0.577-0.018-3.603,1.501-4.198c0,2.139,2.995-0.713,2.995-0.899
		c0.335-0.137,3.311-1.197,3.305-1.197c0-2.424,2.257,0.236,0.595,1.197c-1.624,0-1.5,2.704-2.393,2.704
		c-0.385,1.928-1.147,3.609-1.607,5.481c-0.577,2.307,1.296,2.549,0.701,4.719c2.393,0.44,4.799,0.018,7.199,0
		c0.018-0.428-0.081-0.837-0.298-1.197c3.478,0,0.298,6.592,2.406,6.592c0,2.499,1.191,4.446,1.191,6.009
		c1.625,1.079,2.605,2.518,2.102,4.496c1.99,0.279,6.294,0.787,6.294-1.798c3.026,0,3.249,2.078,3.014,4.198
		c6.046,0,2.263-6.002,4.787-6.002c0.236-0.985,0.645-1.159,1.227-0.514c1.234,0.657,2.177-1.24,3.163-1.854
		c0.31-0.204,1.408-0.843,1.606-0.843c0.856,0.502,0.93,0.366,1.296,0.936c1.643-0.018,3.299-0.936,4.719-1.928
		c2.164,0.279,1.457,4.917,5.512,5.209c1.625,0.118,5.383,0.571,6.784-0.397c0.347-0.229,1.631,0.813,1.773,1.253
		c1.346,0,1.228,1.178,1.823,1.153c0.13,0.267,0.329,0.366,0.601,0.298c0.168,0.509,1.253,0.651,1.805,2.09
		c0,1.302,2.697,1.538,2.697,2.4c1.941,0.974-0.657,1.241,2.295,2.146c1.643,0.502,3.15,1.333,4.911,1.452
		c0.552-2.134,2.388,0.31,3.299,0.31c0.478,0.961,0.713,0.223,1.191,1.197c2.772,2.313,0.937,1.426,2.096,3.894
		c1.333,0.881,1.755,3.938,2.108,5.699c-1.072,0-0.304,4.117-0.304,4.502c-1.302,0,3.305,2.48,3.305-0.596
		c1.897,0.31,3.144,2.394,4.496,2.394c-0.787,1.798,2.102,3.169,2.102,0.31c2.84,0.298,2.084,4.558,1.799,5.996
		c2.362,0,2.629-1.637,5.054-1.568c1.413,0.031,2.821,1.048,3.348-0.533c3.367,1.128,4.781,2.245,7.032,4.247
		c3.87,3.436,4.477,12.26,0.465,15.248c0,0.565-4.366,5.408-4.49,5.408c0,0.595-0.137,6.597-0.316,6.597
		c0,1.185-0.918,7.801-1.792,7.801c0,3.386-2.208,4.012-2.995,7.199c-1.817,1.358-6.753,3.603-7.503,5.103
		c-1.426,0-2.475,1.197-3.907,1.197c-0.204,0.416-3.256,3.299-2.697,3.299c-0.236,2.133,0.149,7.131-0.998,8.539
		c-0.763,0.93-1.879,0.831-1.395,2.269c-1.687,0,0.093,1.191-2.555,1.191c-1.68,0-4.657,2.406-4.75,4.421
		c-0.118,2.487-0.775,4.266-2.902,5.785c0,0.85-3.901,1.098-3.901,3.293c0.366,0,0,4.086,0,4.508
		c-1.159-0.037-4.006,1.129-4.502,2.09c-3.919,0-3.442,0.403-5.996,2.102c0,0.533-0.354,2.4-0.899,2.4
		c0,3.045-2.152,0.279-3.901,1.805c0.682,0,1.563,2.995,1.203,2.995c0,2.642-1.637,2.865-3.299,4.806
		c-0.794,0.533-1.537,2.697-2.102,2.697c0,1.78-0.893,3.405-0.893,5.103c0.378,0,0.025,0.763,0.291,1.488
		c0.843-0.236,0.862-1.191,1.203-1.191c0-1.5,2.381,0.899,0.899,0.899c-1.24,1.867-2.567,1.91-3.305,4.502
		c-2.133,0-4.105,5.401-2.096,5.401c0,0.973,0.354,1.786,0.813,2.555c-4.887-1.37-9.699-2.902-14.411-4.657
		c-0.204-5.5-0.05-19.799,1.898-19.799c0-0.918,0.794-4.8,1.5-4.8c0-2.388,0.291-5.24,0-8.098c-0.893-1.792,1.172-4.086,1.798-6.895
		c3.46-1.737,1.005-19.204,3.609-19.204c0-8.731,1.947-13.804,0.589-21.902c0.657,0-3.938-4.886-3.9-4.799
		c-4.409,0-7.491-7.094-7.491-10.195c-0.428-1.377-1.507-3.417-1.507-5.11c1.017,0-6.3-10.727-6.3-10.498
		c-3.863-2.146,0.217-5.166,0.608-8.694c-3.355-1.123,0.031-10.207,1.494-10.207c0.156-1.147,0.751-1.947,1.805-2.393
		c0.744,2.989,4.235-1.5,1.495-1.5c0-1.984-0.217-6.213,0-7.199c0-3.057-2.692-9.035-4.793-2.704
		c-2.251-1.116-7.919-0.918-8.408-4.502c0.353-1.755-3.224-5.37-4.496-6.003c1.172-3.082-6.083-7.199-8.7-7.199
		c0-0.664-1.382-0.359-1.798-1.197c-2.666,0-3.286-3.602-6.306-3.602c-3.479,0-6.989-2.4-10.195-2.4
		c-1.079-2.146-6.052-1.308-7.199-3.603c-2.61,0-3.628-4.96-3.702-6.796c-0.099-2.214-1.885-9.996-4.998-9.996
		c0-1.897-4.298-5.103-5.401-5.103c0-0.341-1.742-4.204-2.406-4.204c0-1.296-4.552-7.144-5.283-4.589
		c-0.471,1.65,3.485,3.876,3.485,5.798c0.731,0,3.832,5.879,4.452,6.914c6.753,11.46-5.054,3.633-5.054-1.222
		c-1.513-0.756-3.901-6.517-3.901-8.105c-0.886-0.707-3.51-6.288-3.292-6.288c0-3.664-2.003-5.413-6.002-5.413
		c-0.186-0.36-3.547-5.091-3.609-5.091c0-1.5-2.697-6.157-4.192-6.902c0-3.113-1.606-6.957-0.893-10.201
		c0-5.642-0.105-12.656-5.234-16.934C99.819,156.354,113.858,137.304,130.905,121.436z M221.581,187.08
		c0,1.575-0.738,1.996-2.393,2.102C219.547,187.712,220.062,187.973,221.581,187.08z M211.988,256.673
		c-0.918,0-2.09,0.862-1.513-0.899C211.17,255.774,211.988,256.047,211.988,256.673z M199.084,256.388
		c-0.49,0.949-4.545,0.787-5.103-0.316c1.494,0,2.66,0.614,4.198,0c0-0.825-0.682-1.488-1.197-2.393
		c1.631,0,3.473,1.246,5.699,1.203c0-1.389-0.608,0.298,0-1.507c0.942,0.236,3.193,2.388,3.299,3.299
		C202.693,256.313,202.544,256.388,199.084,256.388z M201.477,270.477c-0.236,0.843-0.198,0.899-1.191,0.899
		c0.099-0.403,0.192-0.8,0.291-1.197C200.889,270.272,201.18,270.371,201.477,270.477z M185.882,249.183
		c-1.526,0-4.496-1.34-5.401-2.704c1.488,0.068,2.964,0.676,3.9-0.905c3.802,0.391,4.143,3.014,7.199,3.014
		c0.571,1.017,3.838,3.336,0.688,3.646C189.888,252.469,186.881,251.167,185.882,249.183z M190.378,257.281
		c-0.596,0.105-1.197,0.199-1.798,0.298C188.753,256.195,190.062,254.645,190.378,257.281z M188.288,257.578
		c-1.116,0-2.946,0.484-2.102-1.805C187.662,255.973,188.363,256.58,188.288,257.578z M177.48,246.181
		c0,1.73-4.03,2.238-3.001-0.608c0.297,0.099,0.608,0.211,0.899,0.298C175.768,247.365,176.574,246.621,177.48,246.181z"/>
</g>
</svg>
